<?xml version="1.0" encoding="UTF-8"?>
<!DOCTYPE svg PUBLIC "-//W3C//DTD SVG 1.0//EN" "http://www.w3.org/TR/2001/REC-SVG-20010904/DTD/svg10.dtd">
<!-- Creator: CorelDRAW 2017 -->
<svg xmlns="http://www.w3.org/2000/svg" xml:space="preserve" width="580px" height="580px" version="1.0" shape-rendering="geometricPrecision" text-rendering="geometricPrecision" image-rendering="optimizeQuality" fill-rule="evenodd" clip-rule="evenodd"
viewBox="0 0 5717 5717"
 xmlns:xlink="http://www.w3.org/1999/xlink">
 <g id="Layer_x0020_1">
  <metadata id="CorelCorpID_0Corel-Layer"/>
  <path fill="#FEFEFE" d="M0 0l5717 0 0 5717 -5717 0 0 -5717zm3906 3351c-27,0 -49,22 -49,49l0 105c0,27 22,49 49,49 27,0 49,-22 49,-49l0 -105c0,-27 -22,-49 -49,-49zm-210 0c-27,0 -49,22 -49,49l0 105c0,27 22,49 49,49 27,0 49,-22 49,-49l0 -105c0,-27 -22,-49 -49,-49zm-209 0c-27,0 -49,22 -49,49l0 105c0,27 22,49 49,49 27,0 49,-22 49,-49l0 -105c0,-27 -22,-49 -49,-49zm-210 0c-27,0 -49,22 -49,49l0 105c0,27 22,49 49,49 28,0 49,-22 49,-49l0 -105c0,-27 -21,-49 -49,-49zm-209 0c-27,0 -49,22 -49,49l0 105c0,27 22,49 49,49 27,0 49,-22 49,-49l0 -105c0,-27 -22,-49 -49,-49zm-209 0c-27,0 -49,22 -49,49l0 105c0,27 22,49 49,49 27,0 49,-22 49,-49l0 -105c0,-27 -22,-49 -49,-49zm-210 0c-27,0 -49,22 -49,49l0 105c0,27 22,49 49,49 27,0 49,-22 49,-49l0 -105c0,-27 -22,-49 -49,-49zm-209 0c-27,0 -49,22 -49,49l0 105c0,27 22,49 49,49 27,0 49,-22 49,-49l0 -105c0,-27 -22,-49 -49,-49zm-419 -1997c27,0 49,-21 49,-49 0,-30 25,-55 56,-55 9,0 19,2 28,8 15,9 33,9 48,1 15,-8 25,-23 26,-40 4,-71 63,-126 133,-126 22,0 44,6 65,18 14,7 30,8 44,2 14,-6 24,-18 28,-33 31,-116 136,-197 256,-197 45,0 90,12 130,35 20,11 46,7 61,-11 71,-82 173,-129 280,-129 92,0 180,35 248,97 20,17 49,17 67,-1 99,-95 229,-148 366,-148 290,0 527,237 527,527 0,291 -237,527 -527,527 -193,0 -370,-105 -463,-275 -12,-22 -40,-32 -64,-21 -49,23 -101,34 -154,34 -107,0 -209,-47 -280,-128 -15,-18 -41,-22 -61,-11 -40,23 -85,35 -130,35 -83,0 -160,-38 -210,-104 -10,-12 -24,-20 -39,-20 0,0 0,0 0,0 -15,0 -29,7 -39,19 -26,33 -64,52 -105,52 -27,0 -49,22 -49,49 0,27 22,49 49,49 52,0 101,-17 142,-49 67,65 156,102 251,102 49,0 98,-11 143,-30 88,86 205,134 328,134 53,0 105,-9 154,-26 115,179 313,288 527,288 344,0 625,-280 625,-625 0,-345 -281,-625 -625,-625 -148,0 -288,52 -401,146 -81,-61 -179,-94 -280,-94 -123,0 -240,49 -328,135 -45,-20 -94,-30 -143,-30 -146,0 -276,87 -333,218 -19,-6 -39,-8 -60,-8 -101,0 -188,65 -219,158 -6,-1 -11,-1 -16,-1 -85,0 -154,69 -154,153 0,28 22,49 49,49zm-580 2095c2,0 3,0 4,0 27,0 49,-22 49,-49 0,-27 -22,-49 -49,-49 -31,0 -56,-25 -56,-56 0,-30 25,-55 56,-55l385 0 -3 111 -173 0c-27,0 -49,22 -49,49 0,27 22,49 49,49l171 0 -9 426 -375 0 0 -426zm523 -1833l218 0 30 1316 -86 0c-85,0 -154,69 -154,154 0,46 20,87 52,115l0 674 -110 0 50 -2259zm626 576l118 0 46 740 -210 0 46 -740zm524 0l117 0 47 740 -210 0 46 -740zm524 0l117 0 46 740 -210 0 47 -740zm638 894c0,31 -25,56 -56,56l-105 0c-27,0 -49,21 -49,49 0,27 22,49 49,49l105 0c1,0 2,-1 3,-1l0 636 -2101 0 0 -636c1,0 2,1 4,1l1780 0c27,0 49,-22 49,-49 0,-28 -22,-49 -49,-49l-1780 0c-31,0 -56,-25 -56,-56 0,-31 25,-56 56,-56l2094 0c31,0 56,25 56,56zm206 789l-161 0 0 -674c32,-28 53,-69 53,-115 0,-85 -69,-154 -154,-154l-321 0 -49 -792c-2,-26 -23,-46 -49,-46l-209 0c-26,0 -48,20 -49,46l-50 792 -117 0 -50 -792c-1,-26 -23,-46 -49,-46l-209 0c-26,0 -47,20 -49,46l-49 792 -118 0 -49 -792c-2,-26 -23,-46 -49,-46l-210 0c-25,0 -47,20 -48,46l-50 792 -136 0 -31 -1366c0,-26 -22,-48 -49,-48l-314 0c-27,0 -48,22 -49,48l-35 1576 -387 0c-85,0 -154,69 -154,153 0,46 20,87 52,116l0 464 -108 0c-27,0 -49,22 -49,49 0,27 22,49 49,49l3247 0c27,0 49,-22 49,-49 0,-27 -22,-49 -49,-49zm-3644 1345c0,11 2,21 7,30 4,10 11,18 18,25 8,7 17,14 28,19 10,6 21,10 32,14 11,4 23,6 35,8 11,2 22,3 33,3 23,0 47,-4 70,-12 23,-8 44,-18 64,-31l47 77c-11,9 -25,18 -40,26 -15,8 -31,14 -48,20 -17,5 -34,10 -51,13 -18,3 -34,4 -49,4 -14,0 -28,-2 -45,-4 -16,-2 -33,-6 -50,-12 -17,-5 -33,-13 -49,-22 -16,-9 -31,-21 -43,-36 -13,-14 -23,-31 -31,-52 -7,-20 -12,-43 -12,-70 0,-21 3,-41 10,-60 7,-19 16,-36 29,-52 12,-16 26,-31 42,-44 16,-13 33,-25 52,-35 -4,-3 -8,-6 -12,-10 -4,-4 -9,-8 -14,-12 -5,-4 -11,-9 -17,-14 -6,-6 -14,-12 -22,-19l-7 -75c18,-14 34,-26 50,-35 15,-10 31,-18 46,-24 15,-6 31,-10 47,-13 16,-3 33,-4 52,-4 11,0 22,1 34,3 11,2 23,4 34,8 11,4 21,8 31,14 9,6 18,13 25,21 7,7 13,16 17,26 4,10 6,21 6,33 -1,13 -3,26 -7,38 -4,12 -10,23 -17,34 -8,10 -17,20 -27,29 -10,9 -21,16 -33,22 15,7 30,12 44,16 15,4 30,6 45,6l10 0 0 98 -10 0c-18,0 -34,-2 -51,-5 -16,-4 -32,-9 -47,-15 -16,-6 -32,-14 -47,-23 -16,-9 -31,-18 -47,-29 -10,4 -19,8 -29,13 -10,4 -20,10 -30,15 -10,6 -19,12 -28,18 -9,7 -17,14 -23,22 -7,7 -12,16 -16,24 -4,9 -6,19 -6,29zm173 -309c-11,-1 -21,0 -32,2 -10,1 -20,3 -29,5 -10,3 -18,5 -26,8 -8,3 -15,6 -21,8 12,10 24,20 37,29 13,10 27,19 41,27 12,-4 24,-9 35,-13 11,-5 21,-11 29,-16 9,-6 15,-11 21,-17 5,-6 7,-12 8,-18 -1,0 -2,-1 -5,-2 -3,-2 -7,-4 -12,-5 -5,-2 -12,-4 -20,-6 -7,-1 -16,-2 -26,-2zm149 162l74 0c9,0 19,0 30,-1 10,-1 20,-3 30,-6 9,-3 17,-7 23,-13 6,-5 10,-13 10,-22 0,-5 -2,-12 -5,-22 -3,-10 -7,-21 -12,-33 -4,-12 -10,-25 -16,-38 -6,-13 -12,-26 -18,-38l88 -43c6,13 12,26 17,41 6,15 11,29 16,45 4,15 8,29 11,44 2,15 4,30 4,43 0,26 -5,47 -14,65 -10,18 -22,33 -38,44 -16,11 -35,19 -57,24 -22,5 -45,8 -69,8l-74 0 0 -98zm121 188l-58 58 -60 -59 59 -60 59 59 58 -58 60 59 -60 60 -58 -59zm335 -90c-26,0 -48,-4 -66,-11 -18,-6 -33,-16 -44,-28 -11,-12 -19,-27 -24,-43 -5,-17 -8,-35 -8,-54 0,-10 0,-22 1,-37 0,-15 0,-32 0,-51 0,-20 0,-41 0,-64 0,-23 -1,-46 -2,-70 -1,-23 -2,-45 -4,-67 -2,-21 -4,-40 -7,-56l92 -28c3,14 5,30 7,48 2,19 3,38 4,58 1,20 2,41 2,61 1,20 1,39 1,57 1,15 0,32 0,49 -1,17 -2,33 -2,48 0,16 0,30 0,43 1,12 3,22 6,28 2,5 4,9 7,11 3,3 6,5 10,6 4,1 8,2 12,2 5,0 9,0 15,0l8 0 0 98 -8 0zm226 -98l0 98 -7 0c-20,0 -37,-3 -50,-9 -14,-5 -26,-13 -37,-22 -14,11 -32,18 -52,23 -20,5 -44,8 -73,8l-11 0 0 -98 11 0c29,0 50,-4 65,-14 14,-9 21,-23 21,-41 0,-7 -1,-15 -2,-27 -2,-11 -5,-25 -10,-44l87 -21c3,11 6,21 8,30 2,9 4,17 5,24 1,7 2,14 3,20 1,6 1,12 2,18 0,5 1,11 1,18 1,7 3,12 5,18 3,6 6,10 10,14 4,3 10,5 17,5l7 0zm-132 -196l-68 -69 68 -69 69 69 -69 69zm126 196c10,0 19,-1 26,-2 7,-1 13,-3 18,-5 5,-3 9,-5 12,-8 2,-2 5,-4 6,-7l0 1c3,-5 6,-10 9,-15 3,-6 6,-14 9,-23 3,-10 7,-22 11,-36 4,-15 9,-33 14,-55l81 27c-2,7 -4,15 -6,22 -2,7 -3,14 -4,21 -1,7 -1,13 0,20 1,7 2,14 5,22 9,-15 18,-29 27,-43 10,-14 20,-28 31,-40 11,-13 23,-25 36,-36 13,-11 27,-20 42,-28 15,-8 32,-14 50,-19 18,-5 38,-7 60,-7 25,0 47,4 67,12 19,9 35,20 48,34 13,14 22,30 28,47 6,18 9,35 8,53 -1,22 -6,42 -15,59 -9,17 -20,32 -34,44 -15,13 -31,23 -49,32 -18,8 -37,15 -58,20 -20,5 -40,9 -61,11 -20,2 -40,3 -60,3 -20,0 -38,-1 -54,-2 -16,-1 -31,-4 -45,-7 -14,-4 -27,-9 -39,-15 -12,-7 -25,-15 -37,-26 -15,15 -32,26 -52,33 -20,7 -44,11 -71,11l-9 0 0 -98 6 0zm426 -113c-13,0 -26,2 -39,6 -12,3 -25,8 -36,14 -11,6 -22,13 -32,21 -11,7 -20,16 -28,24 -9,8 -16,17 -23,25 -6,9 -12,17 -16,24 8,0 17,1 28,1 10,0 19,0 29,0 13,0 26,0 40,-1 13,0 27,-2 40,-4 13,-2 26,-4 38,-8 13,-3 24,-8 34,-13 10,-6 18,-12 25,-20 7,-8 13,-17 15,-27 -2,-14 -9,-25 -22,-32 -14,-7 -31,-10 -53,-10zm639 412c-23,0 -44,-1 -65,-4 -21,-4 -40,-9 -58,-16 -18,-6 -35,-15 -50,-26 -15,-10 -28,-23 -38,-39 -11,-15 -19,-32 -25,-52 -6,-20 -9,-42 -9,-68 0,-18 1,-35 2,-51 2,-17 4,-33 8,-49 3,-16 7,-32 12,-49 6,-16 12,-34 19,-52l80 33c-6,15 -11,28 -15,40 -5,12 -8,23 -11,33 -3,9 -5,18 -7,27 -2,8 -3,16 -4,23 0,8 -1,15 -1,22 0,8 0,15 0,23 0,16 2,29 7,41 5,11 12,20 20,28 8,8 18,15 29,20 11,5 23,9 35,11 12,3 24,5 36,6 12,1 24,1 35,1 5,0 13,0 24,-1 10,0 22,-2 34,-3 12,-2 25,-4 38,-7 13,-3 25,-7 36,-11 11,-4 19,-9 26,-15 7,-6 11,-12 11,-20 -15,-11 -36,-21 -61,-30 -26,-9 -58,-15 -95,-20l13 -94 253 0 0 98 -40 0c5,8 8,16 10,25 2,8 3,15 3,21 -1,20 -6,37 -15,52 -9,15 -20,28 -34,40 -13,12 -29,21 -47,29 -17,8 -35,15 -53,20 -19,5 -37,9 -55,11 -17,2 -34,3 -48,3zm273 -299c16,0 29,-4 39,-12 11,-9 20,-20 28,-33 7,-14 13,-29 19,-47 5,-17 10,-35 15,-53l82 15c-2,7 -4,15 -6,25 -3,10 -5,20 -7,30 -2,10 -3,20 -4,30 -2,10 -2,18 -1,26 0,7 2,13 5,17 4,4 8,6 15,5 8,-1 15,-4 22,-9 7,-5 13,-11 18,-19 6,-8 10,-18 14,-28 5,-10 8,-20 11,-31 3,-11 6,-21 8,-32 1,-10 3,-20 4,-28l79 13c0,6 -1,14 -2,23 -2,9 -3,18 -4,28 -1,10 -1,20 -1,30 0,10 1,19 3,27 2,8 6,15 11,20 6,4 13,7 22,7 6,0 12,-1 18,-3 6,-2 11,-5 16,-8 5,-4 9,-8 12,-13 3,-5 4,-11 4,-17 0,-11 -2,-22 -5,-35 -4,-13 -8,-26 -13,-39 -5,-12 -10,-24 -15,-36 -6,-11 -10,-20 -14,-28l77 -43 6 14c3,6 7,15 11,24 4,9 8,20 12,32 4,12 8,24 11,37 4,13 7,26 9,39 2,14 3,27 3,39 0,21 -2,39 -8,56 -6,16 -14,30 -26,42 -11,11 -26,20 -43,27 -17,6 -37,9 -60,10 -11,0 -21,-1 -30,-4 -9,-2 -18,-5 -25,-9 -7,-3 -14,-8 -19,-13 -6,-5 -11,-11 -15,-16 -5,6 -10,12 -16,17 -6,5 -12,9 -20,13 -7,3 -15,6 -24,8 -9,2 -19,3 -31,4 -10,0 -19,-1 -27,-3 -8,-2 -16,-5 -23,-9 -6,-3 -13,-8 -18,-13 -6,-5 -11,-11 -15,-17 -5,5 -10,10 -15,15 -6,4 -12,8 -20,12 -8,3 -17,6 -27,8 -10,2 -21,3 -35,3l-11 0 0 -98 6 0zm678 98c-27,0 -54,-5 -80,-16 -25,-10 -49,-27 -72,-49l56 -79c11,9 20,17 30,23 9,5 18,10 27,13 9,4 17,6 24,7 8,1 16,2 22,2 6,0 12,0 18,-1 7,-1 13,-2 19,-4 7,-1 12,-3 18,-6 6,-2 10,-5 15,-9 -8,-19 -17,-39 -26,-59 -9,-21 -18,-41 -28,-62 -9,-21 -18,-41 -27,-62 -9,-20 -18,-40 -25,-58l90 -38 102 246c3,9 7,17 10,24 3,7 7,12 11,17 4,4 9,8 15,10 6,2 13,3 23,3l9 0 0 98 -9 0c-13,0 -24,-1 -33,-3 -10,-1 -19,-4 -26,-7 -8,-3 -14,-6 -20,-10 -6,-5 -12,-9 -17,-14 -9,6 -19,11 -28,16 -10,4 -20,8 -30,10 -10,3 -21,5 -32,6 -11,1 -23,2 -36,2zm449 -98l0 98 -7 0c-20,0 -37,-3 -51,-9 -14,-5 -26,-13 -36,-22 -15,11 -32,18 -52,23 -21,5 -45,8 -73,8l-12 0 0 -98 12 0c28,0 50,-4 64,-14 15,-9 22,-23 22,-41 0,-7 -1,-15 -3,-27 -1,-11 -5,-25 -10,-44l87 -21c4,11 7,21 9,30 2,9 4,17 5,24 1,7 2,14 3,20 0,6 1,12 1,18 0,5 1,11 2,18 1,7 2,12 5,18 2,6 5,10 10,14 4,3 10,5 17,5l7 0zm-132 -196l-69 -69 69 -69 68 69 -68 69zm119 196l22 0c1,-13 3,-28 6,-44 4,-16 9,-32 15,-48 6,-17 14,-32 22,-47 9,-15 18,-29 28,-41 10,-12 21,-22 33,-29 12,-8 25,-12 38,-13 13,1 26,4 38,12 12,7 22,17 30,29 8,13 15,26 20,42 4,15 7,31 7,47 0,19 -4,37 -12,55 -8,17 -19,34 -32,49 -13,15 -28,29 -44,41 -17,13 -34,23 -51,31 1,5 5,10 9,17 5,7 10,14 16,21 6,7 12,14 18,20 6,6 11,11 15,15 0,-12 1,-24 5,-37 4,-12 9,-24 16,-36 6,-11 14,-22 23,-32 9,-11 19,-19 30,-27 10,-8 21,-14 32,-18 11,-5 22,-7 33,-7l15 0 0 98 -16 0c-9,0 -18,2 -27,7 -8,5 -16,11 -22,18 -6,8 -12,16 -16,26 -3,9 -5,19 -5,28 0,4 0,8 0,12 1,3 2,7 4,11 2,3 4,7 7,11 2,4 6,9 10,14l-56 68c-25,-15 -47,-30 -66,-46 -18,-15 -35,-31 -48,-48 -14,-16 -25,-33 -35,-50 -9,-16 -17,-34 -23,-51l-39 0 0 -98zm182 -79c1,-5 0,-11 0,-18 0,-6 -2,-13 -3,-19 -2,-6 -4,-11 -6,-16 -3,-5 -6,-9 -10,-11 -4,2 -8,6 -13,11 -5,6 -9,13 -14,21 -5,9 -10,17 -14,27 -4,10 -8,20 -12,30 -3,10 -6,20 -8,30 -2,9 -4,18 -4,25 9,-1 18,-5 28,-10 9,-5 18,-11 26,-18 8,-7 15,-16 21,-24 5,-9 9,-18 9,-28zm406 176c-12,0 -25,-1 -38,-4 -14,-3 -26,-6 -39,-10 -13,-5 -25,-10 -37,-15 -11,-6 -22,-12 -31,-18 -7,9 -14,17 -21,23 -8,6 -16,11 -25,15 -9,3 -18,6 -29,8 -10,1 -21,2 -33,2l-15 0 0 -98 15 0c14,0 26,-3 35,-8 9,-6 17,-13 24,-22 6,-8 12,-18 17,-29 5,-10 10,-21 16,-31 6,-12 13,-25 20,-37 8,-13 17,-24 27,-34 10,-10 22,-19 34,-25 13,-6 27,-9 43,-9 22,0 40,5 56,15 15,10 28,23 38,39 10,16 18,34 23,55 5,20 7,41 7,62 0,17 -2,33 -8,48 -5,15 -12,28 -20,39 -8,10 -17,19 -28,25 -10,6 -21,9 -31,9zm-40 -198c-6,0 -11,2 -16,7 -6,4 -10,10 -15,17 -4,7 -8,14 -12,22 -4,8 -7,16 -10,22 7,5 15,9 23,12 9,4 18,7 27,10 10,3 19,5 28,7 10,2 19,3 28,4 1,-12 0,-25 -2,-37 -3,-12 -6,-23 -11,-32 -5,-10 -11,-18 -17,-23 -7,-6 -15,-9 -23,-9z"/>
 </g>
</svg>
