<?xml version="1.0" encoding="UTF-8"?>
<!DOCTYPE svg PUBLIC "-//W3C//DTD SVG 1.0//EN" "http://www.w3.org/TR/2001/REC-SVG-20010904/DTD/svg10.dtd">
<!-- Creator: CorelDRAW 2017 -->
<svg xmlns="http://www.w3.org/2000/svg" xml:space="preserve" width="580px" height="580px" version="1.0" shape-rendering="geometricPrecision" text-rendering="geometricPrecision" image-rendering="optimizeQuality" fill-rule="evenodd" clip-rule="evenodd"
viewBox="0 0 4702 4702"
 xmlns:xlink="http://www.w3.org/1999/xlink">
 <g id="Layer_x0020_1">
  <metadata id="CorelCorpID_0Corel-Layer"/>
  <path fill="#FEFEFE" d="M0 0l4702 0 0 4702 -4702 0 0 -4702zm1067 4252l0 0 -1 0 0 0 0 0 -4 0 0 0c-3,0 -6,0 -10,0 -6,-1 -13,-3 -21,-6 -4,21 -11,41 -21,60 -10,19 -23,36 -38,53 -15,16 -32,32 -51,45 -20,14 -40,27 -62,38l-47 -64c12,-7 25,-13 37,-20 12,-8 24,-15 35,-23 11,-8 21,-17 31,-25 9,-9 18,-18 25,-27 7,-10 12,-19 17,-29 4,-10 6,-20 6,-30 0,-6 -2,-15 -4,-25 -3,-10 -6,-21 -10,-33 -4,-11 -8,-23 -13,-35 -5,-12 -9,-23 -14,-32l74 -32c7,20 13,37 19,50 7,14 12,25 18,33 6,8 12,14 17,17 5,3 10,5 16,5l0 0 6 0 51 0c7,0 15,0 24,-1 9,-1 17,-2 25,-5 7,-2 14,-6 19,-10 5,-5 8,-11 8,-19 0,-4 -2,-10 -4,-18 -2,-8 -6,-17 -10,-27 -4,-10 -8,-20 -13,-31 -5,-11 -10,-21 -15,-31l73 -36c4,11 9,22 14,34 5,12 9,24 12,37 4,12 7,24 9,36 3,13 4,24 4,36 0,21 -4,38 -12,53 -7,15 -18,27 -31,36 -13,9 -29,16 -47,20 -17,4 -36,6 -57,6l-50 0 -5 0zm526 -2461l1084 0 -71 -239c-5,-17 -1,-37 13,-50 7,-7 16,-12 25,-14l1 0 0 0 1 0 0 0 1 0 0 0 1 0 0 0 1 0 0 0 0 0 0 0 1 0 0 0 1 -1 0 0 1 0 0 0 1 0 0 0 1 0 0 0 0 0 1 0 0 0 0 0 1 0 0 0 1 0 0 0 1 0 0 0 1 1 0 0 1 0 0 0 0 0 0 0 1 0 0 0 1 0 0 0 1 0 0 0 1 0 0 0 1 0c1,1 2,1 4,1l238 72 0 -377 -1314 0 0 607zm1115 101l-1166 0c-28,0 -51,-23 -51,-51l0 -707 0 -253c0,-28 23,-51 51,-51l1415 0c28,0 51,23 51,51l0 253 0 457 166 50c17,5 30,19 35,36 4,17 -1,36 -13,48l-68 68 122 122c19,20 19,52 0,72l-143 143c-10,9 -23,14 -36,14 -13,0 -26,-5 -36,-14l-122 -122 -71 71c-13,13 -31,18 -48,13 -18,-4 -31,-17 -36,-34l-50 -166zm236 -214l-1 -1 -213 -64 100 335 37 -37c12,-13 29,-19 46,-19 17,0 34,6 47,19l111 111 71 -71 -117 -117c-11,-11 -17,-26 -17,-41 0,-15 6,-29 17,-40l39 -39 -120 -36zm-1149 -90l303 0 0 -101 -303 0 0 101zm354 102l-405 0c-28,0 -50,-23 -50,-51l0 -202c0,-28 22,-51 50,-51l405 0c27,0 50,23 50,51l0 202c0,28 -23,51 -50,51zm-556 -607l1314 0 0 -152 -1314 0 0 152zm1068 1971c-63,-69 -99,-171 -107,-303l-407 0c-7,132 -44,234 -106,303l620 0zm-866 0c155,0 239,-102 251,-303l-1009 0c-112,0 -203,-91 -203,-202l0 -253 0 -1668c0,-111 91,-202 203,-202l2628 0c111,0 202,91 202,202l0 1668 0 253c0,111 -91,202 -202,202l-1010 0c12,201 97,303 252,303l101 0c83,0 151,68 151,152 0,83 -68,152 -151,152l-1314 0c-84,0 -152,-69 -152,-152 0,-84 68,-152 152,-152l101 0zm-101 101c-28,0 -51,23 -51,51 0,28 23,50 51,50l1314 0c28,0 50,-22 50,-50 0,-28 -22,-51 -50,-51l-101 0 -1112 0 -101 0zm1870 -909l0 -1517 -2426 0 0 1517 2426 0zm-2527 0l0 -1567c0,-28 22,-51 50,-51l2527 0c28,0 51,23 51,51l0 1567 101 0 0 -1618c0,-56 -45,-101 -101,-101l-2628 0c-56,0 -102,45 -102,101l0 1618 102 0zm1465 303l-303 0c-28,0 -50,-23 -50,-51 0,-28 22,-50 50,-50l303 0c28,0 51,22 51,50 0,28 -23,51 -51,51zm-1567 -202l0 202c0,56 46,101 102,101l1061 0 505 0 1062 0c56,0 101,-45 101,-101l0 -202 -152 0 -2527 0 -152 0zm2913 1737c-4,-2 -9,-4 -13,-6 -5,-2 -9,-4 -14,-6 -8,-3 -17,-5 -27,-7 -10,-2 -21,-2 -31,-1 -8,1 -15,3 -21,6 -7,3 -13,7 -18,11 -5,5 -9,10 -12,15 -4,6 -5,12 -5,18 0,8 3,15 8,21 5,6 11,11 19,15 8,4 17,7 26,9 10,3 19,3 28,3 9,-1 19,-2 30,-3 10,-2 20,-4 29,-5 5,-1 11,-2 16,-3 5,-1 10,-2 16,-3l10 79c-11,3 -25,6 -41,9 -17,3 -35,6 -56,8 -20,2 -43,4 -67,6 -24,2 -50,2 -77,2l-29 0 -5 0 0 0 -3 0 0 0 -2 0 0 0c-5,0 -11,0 -16,-2 -7,-1 -14,-3 -20,-5 -6,-3 -12,-6 -17,-9 -5,-3 -8,-7 -11,-11 -4,5 -8,8 -13,12 -4,3 -10,6 -17,8 -6,3 -14,4 -23,5 -9,2 -20,2 -32,2l-5 0 -11 0 -6 0c-6,25 -17,48 -31,68 -15,20 -32,38 -52,53 -20,15 -43,27 -67,37 -25,10 -51,17 -78,21l-18 -78c23,-5 45,-11 65,-18 20,-7 37,-15 52,-24 14,-9 27,-18 36,-28 10,-10 17,-20 21,-31 -7,0 -15,0 -23,0 -8,0 -15,-1 -20,-1 -17,-1 -32,-5 -46,-9 -14,-6 -25,-12 -35,-21 -10,-9 -18,-19 -23,-32 -6,-13 -8,-27 -8,-43 0,-11 1,-21 3,-32 2,-11 5,-21 9,-32 5,-10 10,-20 16,-29 6,-9 13,-17 21,-24 8,-7 16,-13 26,-17 9,-3 19,-5 30,-5 13,0 25,2 36,7 11,4 20,10 30,18 9,8 17,18 24,29 7,10 13,22 18,34 5,12 9,25 13,38 3,13 5,26 7,39l0 0 11 0 6 0c8,0 14,-1 19,-4 6,-2 10,-6 14,-10 3,-5 6,-10 7,-16 2,-6 3,-13 3,-20 0,-10 0,-22 0,-37 0,-14 0,-29 0,-46 -1,-16 -1,-33 -1,-51 0,-18 -1,-35 -1,-52 -1,-17 -1,-33 -2,-48 0,-15 -1,-28 -1,-40l80 -15 3 305c0,11 3,19 8,25 5,6 13,9 23,9l1 0 5 0 35 -1c-6,-9 -11,-19 -13,-29 -2,-10 -3,-21 -3,-33 0,-15 3,-30 10,-44 6,-14 15,-27 27,-39 11,-11 24,-21 39,-29 15,-7 31,-12 49,-13 8,-1 17,-1 25,0 7,1 15,2 22,4 7,2 14,4 20,6 6,3 12,5 17,8 6,3 12,7 17,10 6,4 11,8 15,12l-31 60zm-532 3c-3,-1 -8,1 -12,4 -5,3 -9,7 -13,12 -4,6 -7,12 -10,18 -2,7 -4,13 -4,19 1,5 3,10 6,14 4,4 8,7 14,9 5,3 12,4 19,6 7,1 14,2 21,2 7,1 13,1 19,1l16 0c-3,-11 -6,-21 -9,-30 -3,-10 -7,-19 -12,-26 -5,-8 -10,-14 -16,-19 -5,-5 -12,-9 -19,-10zm-427 352l-9 -251c0,-1 0,-4 0,-9 0,-5 1,-10 3,-16 2,-6 4,-13 8,-19 3,-7 9,-13 15,-18 3,-2 7,-5 11,-7 4,-1 8,-3 12,-4 5,-1 9,-1 13,-1 5,-1 9,-1 13,0 5,-13 11,-25 18,-38 7,-13 15,-24 25,-34 9,-11 20,-19 32,-25 12,-7 25,-10 39,-10 11,0 21,2 31,6 9,3 17,8 25,14 7,6 14,12 20,20 6,8 10,17 14,26 4,9 7,19 9,29 2,10 3,20 3,30 0,7 -1,16 -2,24 -2,9 -4,17 -7,26 -3,8 -6,16 -11,24 -4,8 -9,14 -14,20 -5,6 -11,11 -17,14 -6,4 -13,5 -20,5 -13,0 -26,-1 -41,-5 -14,-3 -28,-7 -41,-12 -14,-5 -27,-11 -38,-16 -11,-6 -20,-12 -27,-17 1,19 2,38 4,57 1,20 3,40 4,59 2,20 3,39 5,59 1,19 2,38 3,57l-80 12zm178 -353c-6,0 -12,1 -16,5 -5,3 -9,7 -13,12 -4,5 -7,10 -10,16 -3,6 -5,11 -7,15 5,3 11,6 18,9 7,3 15,6 22,9 8,3 16,5 23,7 8,3 14,4 20,5 3,-8 4,-16 4,-25 -1,-9 -3,-17 -6,-25 -4,-8 -8,-14 -14,-20 -6,-5 -13,-8 -21,-8zm-628 86l14 0c10,0 20,0 30,0 10,0 20,-1 30,-2 9,-2 18,-4 26,-6 8,-3 14,-7 19,-12 5,-5 8,-12 10,-20 2,-8 1,-17 -3,-29 -1,-4 -4,-9 -7,-16 -4,-6 -9,-12 -15,-19 -6,-8 -13,-15 -20,-23 -8,-8 -16,-16 -25,-25 -8,-8 -17,-16 -27,-25 -9,-8 -19,-16 -28,-24l8 -69 213 -95 31 68 -169 78c8,6 17,13 26,21 9,8 17,16 25,26 9,9 16,19 24,30 7,10 13,21 19,32 5,11 10,22 13,33 3,11 4,22 4,33 0,18 -3,34 -10,49 -6,15 -15,28 -27,40 -11,11 -24,19 -40,26 -16,6 -33,9 -52,9l-69 0 -7 0 -1 0 -2 0 0 0c-20,0 -37,-3 -51,-8 -15,-6 -27,-14 -36,-24 -9,-10 -16,-22 -20,-35 -4,-14 -7,-29 -7,-45 0,-8 1,-18 1,-30 0,-12 0,-26 0,-42 0,-16 0,-33 0,-52 0,-19 -1,-39 -1,-58 -1,-19 -2,-37 -4,-55 -1,-18 -3,-33 -6,-46l76 -23c3,11 4,24 6,39 1,16 2,32 3,48 1,17 2,33 2,50 1,17 1,33 1,47 0,13 0,26 0,40 -1,14 -2,27 -2,40 0,13 0,24 0,35 1,10 3,18 5,23 2,4 4,7 6,9 2,2 5,4 8,5 3,1 6,2 10,2 3,0 7,0 10,0l1 0 0 0 0 0 0 0 0 0 1 0 0 0 0 0 7 0zm-245 80c-10,0 -20,-2 -31,-4 -11,-2 -22,-5 -32,-8 -10,-4 -20,-8 -30,-13 -9,-4 -18,-9 -25,-14 -6,8 -12,14 -18,19 -7,5 -14,9 -21,12 -7,3 -15,5 -23,6 -9,2 -18,2 -27,2l-3 0 -6 0 0 0 0 0 -1 0 -3 0 0 0c-7,0 -13,-1 -20,-2 -8,-1 -15,-3 -22,-5 -7,-3 -13,-6 -19,-9 -6,-4 -11,-7 -15,-11 -8,6 -17,11 -28,14 -10,4 -21,7 -32,9 -11,1 -23,3 -35,3 -12,1 -24,1 -35,1l-1 0 0 0 -5 0 -1 0 0 0 0 0 -3 0 0 0c-7,0 -14,-1 -20,-2 -8,-1 -15,-3 -22,-5 -7,-3 -14,-6 -20,-9 -5,-4 -11,-7 -15,-11 -8,6 -17,11 -27,14 -10,4 -21,7 -33,9 -11,1 -23,3 -35,3 -12,1 -23,1 -35,1l0 0 -1 0 -9 0 -6 0c-7,25 -17,48 -32,68 -14,20 -32,38 -52,53 -20,15 -42,27 -67,37 -25,10 -50,17 -77,21l-19 -78c24,-5 46,-11 65,-18 20,-7 37,-15 52,-24 15,-9 27,-18 37,-28 10,-10 17,-20 21,-31 -8,0 -15,0 -23,0 -9,0 -15,-1 -20,-1 -17,-1 -32,-5 -46,-9 -14,-6 -26,-12 -36,-21 -10,-9 -17,-19 -23,-32 -5,-13 -8,-27 -8,-43 0,-11 1,-21 4,-32 2,-11 5,-21 9,-32 4,-10 9,-20 16,-29 6,-9 13,-17 21,-24 7,-7 16,-13 25,-17 10,-3 20,-5 31,-5 13,0 24,2 35,7 11,4 21,10 30,18 9,8 17,18 24,29 7,10 13,22 19,34 5,12 9,25 12,38 4,13 6,26 7,39l1 0 9 0 1 0 0 0c12,0 23,0 32,-1 10,-1 18,-2 25,-4 7,-1 13,-4 18,-6 5,-3 9,-7 12,-11 4,-5 7,-11 8,-18 1,-7 1,-13 0,-20 -1,-7 -2,-14 -4,-21 -2,-7 -4,-14 -5,-21l74 -21c2,8 4,15 5,21 1,6 3,12 4,18 1,6 2,12 3,18 1,7 1,13 3,20 0,5 1,10 2,15 1,5 3,10 6,15 2,5 6,8 10,11 5,3 10,5 17,5l1 0 0 0 5 0 1 0 0 0c12,0 22,0 32,-1 9,-1 18,-2 25,-4 7,-1 13,-4 18,-6 5,-3 9,-7 12,-11 4,-5 6,-11 7,-18 1,-7 1,-13 0,-20 0,-7 -2,-14 -4,-21 -1,-7 -3,-14 -5,-21l74 -21c2,8 4,15 6,21 1,6 2,12 3,18 1,6 2,12 3,18 1,7 2,13 3,20 1,5 2,10 3,15 1,5 3,10 5,15 3,5 6,8 11,11 4,3 10,5 17,5l0 0 0 0 6 0 3 0c11,0 20,-2 28,-7 8,-4 14,-10 20,-18 5,-7 10,-15 14,-23 4,-9 8,-18 13,-26 5,-10 11,-21 17,-31 6,-10 14,-20 22,-28 8,-8 18,-15 28,-20 10,-5 22,-8 35,-8 18,0 33,4 46,12 13,9 23,19 32,33 8,13 14,28 18,45 4,17 6,34 6,51 0,14 -2,28 -6,40 -4,12 -10,23 -17,31 -7,9 -14,16 -23,21 -8,5 -17,8 -26,8zm-32 -163c-5,0 -10,2 -14,5 -4,4 -8,9 -12,14 -3,6 -7,12 -10,19 -3,6 -5,12 -8,18 6,4 12,7 19,10 7,3 15,6 22,8 8,2 16,4 23,6 8,1 16,2 23,3 1,-10 0,-21 -2,-31 -2,-9 -4,-18 -8,-26 -4,-8 -9,-14 -15,-19 -5,-5 -12,-7 -18,-7zm-302 247l48 -48 49 49 -48 49 -49 -48 -47 48 -50 -49 49 -49 48 48zm-45 74l45 -45 45 45 -45 46 -45 -46zm-175 -83l-48 47 -49 -49 49 -49 48 49 48 -48 49 49 -48 49 -49 -48zm-227 -240c-4,-1 -8,1 -13,4 -4,3 -8,7 -12,12 -4,6 -7,12 -10,18 -3,7 -4,13 -4,19 0,5 2,10 6,14 3,4 8,7 13,9 6,3 12,4 19,6 7,1 14,2 21,2 7,1 14,1 20,1l16 0c-3,-11 -6,-21 -9,-30 -4,-10 -8,-19 -12,-26 -5,-8 -10,-14 -16,-19 -6,-5 -12,-9 -19,-10zm-233 -177l-48 48 -49 -50 49 -49 48 49 48 -48 49 49 -48 49 -49 -48z"/>
 </g>
</svg>
