<?xml version="1.0" encoding="UTF-8"?>
<!DOCTYPE svg PUBLIC "-//W3C//DTD SVG 1.0//EN" "http://www.w3.org/TR/2001/REC-SVG-20010904/DTD/svg10.dtd">
<!-- Creator: CorelDRAW 2017 -->
<svg xmlns="http://www.w3.org/2000/svg" xml:space="preserve" width="580px" height="580px" version="1.0" shape-rendering="geometricPrecision" text-rendering="geometricPrecision" image-rendering="optimizeQuality" fill-rule="evenodd" clip-rule="evenodd"
viewBox="0 0 3992 3992"
 xmlns:xlink="http://www.w3.org/1999/xlink">
 <g id="Layer_x0020_1">
  <metadata id="CorelCorpID_0Corel-Layer"/>
  <path fill="#FEFEFE" d="M0 0l3992 0 0 3992 -3992 0 0 -3992zm1063 3611l-1 0 0 0 -8 0 -1 0c-23,0 -43,-4 -60,-12 -18,-7 -34,-19 -48,-34 -4,7 -10,14 -18,19 -8,5 -17,10 -27,13 -10,4 -21,6 -33,8 -12,2 -24,3 -36,4 -12,1 -24,1 -35,2 -12,0 -22,0 -32,0 -16,-1 -32,-1 -48,-2 -16,-1 -31,-3 -46,-5 -15,-3 -29,-7 -42,-12 -13,-5 -24,-11 -33,-20 -10,-9 -18,-19 -23,-33 -6,-12 -8,-28 -8,-47 0,-6 0,-13 2,-20 1,-7 3,-14 5,-21 3,-8 5,-14 9,-21 3,-6 6,-12 10,-17l51 37c-1,3 -4,6 -6,10 -2,4 -4,8 -6,12 -2,4 -4,8 -5,13 -2,4 -2,8 -2,12 0,6 2,11 7,16 5,4 12,8 20,12 8,3 17,6 28,8 11,3 23,4 35,6 12,1 24,2 36,3 13,0 25,0 36,0 9,0 18,0 28,0 9,0 19,-1 29,-2 10,-1 20,-3 29,-5 9,-2 17,-5 25,-8 7,-3 13,-7 17,-12 4,-5 6,-11 6,-18 0,-6 -1,-13 -5,-21 -4,-7 -9,-14 -15,-22 -7,-7 -14,-15 -22,-23 -8,-7 -16,-14 -24,-21 -8,-7 -16,-13 -23,-19 -8,-6 -14,-11 -20,-16l7 -59 199 -83 24 60 -165 67c10,8 20,17 30,25 9,8 18,17 26,26 9,9 16,18 23,28 7,10 14,20 19,31 4,9 9,17 14,26 5,8 11,16 17,23 6,7 14,13 22,17 8,4 18,7 28,7l1 0 8 0 0 0 1 0c10,0 19,-1 27,-1 8,-1 15,-2 21,-3 6,-2 11,-4 15,-6 5,-2 8,-5 11,-9 3,-5 5,-10 6,-15 1,-6 1,-12 0,-18 -1,-6 -2,-12 -3,-18 -2,-5 -3,-11 -5,-17l63 -18c2,7 3,13 4,18 2,5 3,11 4,16 1,5 1,10 2,15 1,5 2,11 3,17 0,4 1,8 2,12 1,5 2,9 4,13 3,4 6,7 9,10 4,2 9,4 15,4l0 0 0 0 5 0 3 0c9,0 17,-2 24,-6 6,-4 12,-9 16,-15 5,-6 9,-13 12,-20 4,-8 8,-15 11,-22 5,-9 9,-18 15,-26 5,-9 11,-17 19,-24 7,-7 14,-13 23,-17 9,-5 19,-7 30,-7 15,0 28,4 39,10 11,8 20,17 27,28 7,11 12,24 16,38 3,15 5,29 5,44 0,12 -2,23 -6,34 -3,10 -8,19 -14,26 -5,8 -12,14 -19,18 -7,4 -15,6 -22,6 -9,0 -18,-1 -27,-3 -9,-1 -18,-4 -27,-7 -9,-3 -17,-6 -25,-10 -9,-4 -16,-8 -22,-12 -5,6 -10,11 -15,15 -6,5 -11,8 -18,11 -6,2 -12,4 -19,5 -8,1 -15,2 -23,2l-3 0 -5 0 0 0 0 0 -1 0 -2 0 0 0c-6,0 -11,-1 -17,-2 -7,-1 -13,-3 -19,-5 -6,-2 -11,-4 -16,-7 -5,-3 -9,-6 -13,-9 -7,5 -14,9 -23,12 -9,3 -18,5 -28,7 -10,1 -20,3 -30,3 -10,1 -20,1 -29,1zm290 -1589l0 -114c0,-21 -17,-38 -38,-38 -21,0 -38,17 -38,38l0 114c0,20 17,37 38,37 21,0 38,-17 38,-37zm1627 -341l-202 0c8,-21 13,-44 13,-67l0 -425c0,-21 -17,-38 -38,-38 -21,0 -38,17 -38,38l0 425c0,29 -11,57 -30,77l-2 2c-11,11 -24,20 -39,26l-520 210c-82,33 -174,33 -255,0l-521 -210c-43,-17 -71,-59 -71,-105l0 -548 265 89 0 299c0,21 17,38 38,38 21,0 38,-17 38,-38l0 -273 352 119c17,6 35,6 52,0l428 -145 0 306c-52,18 -83,72 -74,126 9,55 57,94 112,94 55,0 103,-39 112,-94 9,-54 -22,-108 -74,-126l0 -331 553 -188c31,-10 52,-39 52,-73 -1,-33 -23,-62 -55,-71l-1056 -322c-16,-5 -32,-5 -48,0l-1056 322c-32,9 -54,38 -55,71 0,33 21,63 53,73l288 98 0 574c0,23 4,46 12,67l-14 0c-62,0 -112,50 -112,112l0 115c0,21 17,38 38,38 21,0 38,-17 38,-38l0 -115c0,-20 16,-36 36,-36l67 0c16,13 33,24 53,32l520 210c100,41 212,41 312,0l298 -120 0 143c0,20 17,37 38,37 21,0 38,-17 38,-37l0 -152c0,-7 -2,-13 -6,-19l153 -62c19,-8 37,-19 52,-32l255 0c42,0 75,34 75,75l0 227c0,42 -33,76 -75,76l-1930 0c-104,0 -189,85 -189,189l0 227c0,105 85,189 189,189l1665 0c21,0 38,-17 38,-37 0,-21 -17,-38 -38,-38l-1665 0c-62,0 -113,-51 -113,-114l0 -227c0,-62 51,-113 113,-113l1930 0c83,0 151,-68 151,-152l0 -227c0,-83 -68,-151 -151,-151zm-492 -76c-21,0 -38,-17 -38,-37 0,-21 17,-38 38,-38 21,0 38,17 38,38 0,20 -17,37 -38,37zm-490 -1057l1056 322 -575 196 -465 -251c-18,-10 -41,-3 -51,16 -10,18 -3,41 15,51l403 217 -383 130c-1,0 -2,0 -4,0l-1056 -358 1060 -323zm74 1776l0 227c0,21 17,38 38,38 21,0 37,-17 37,-38l0 -227c0,-21 -16,-38 -37,-38 -21,0 -38,17 -38,38zm-870 38c21,0 38,-17 38,-38 0,-21 -17,-38 -38,-38 -63,0 -114,51 -114,114l0 76c0,62 51,113 114,113l302 0c63,0 114,-51 114,-113l0 -76c0,-63 -51,-114 -114,-114 -21,0 -37,17 -37,38 0,21 16,38 37,38 21,0 38,17 38,38l0 76c0,20 -17,37 -38,37l-302 0c-21,0 -38,-17 -38,-37l0 -76c0,-21 17,-38 38,-38zm1362 -38l0 227c0,21 17,38 37,38 21,0 38,-17 38,-38l0 -227c0,-21 -17,-38 -38,-38 -20,0 -37,17 -37,38zm-190 0l0 227c0,21 17,38 38,38 21,0 38,-17 38,-38l0 -227c0,-21 -17,-38 -38,-38 -21,0 -38,17 -38,38zm-151 76l0 76c0,20 17,37 38,37 21,0 38,-17 38,-37l0 -76c0,-21 -17,-38 -38,-38 -21,0 -38,17 -38,38zm643 -492c21,0 38,-17 38,-38 0,-21 -17,-38 -38,-38l-113 0c-42,0 -76,34 -76,76l0 76c0,41 34,75 76,75l113 0c21,0 38,-17 38,-37 0,-21 -17,-38 -38,-38l-113 0 0 -76 113 0zm502 1702c-9,0 -18,-1 -27,-3 -9,-1 -18,-4 -27,-7 -9,-3 -17,-6 -25,-10 -9,-4 -16,-8 -22,-12 -5,6 -10,11 -15,15 -6,5 -12,8 -18,11 -6,2 -12,4 -19,5 -8,1 -15,2 -23,2l-3 0 -5 0 0 0 0 0 -1 0 -2 0 0 0c-6,0 -12,-1 -17,-2 -7,-1 -13,-3 -19,-5 -6,-2 -11,-4 -16,-7 -5,-3 -9,-6 -13,-9 -7,5 -14,9 -23,12 -9,3 -18,5 -28,7 -10,1 -20,3 -30,3 -10,1 -20,1 -30,1l0 0 0 0 -8 0 -5 0c-6,21 -15,40 -27,57 -12,18 -27,33 -44,45 -17,13 -36,24 -57,32 -21,8 -43,14 -66,18l-16 -67c20,-4 39,-9 56,-15 16,-6 31,-13 43,-20 13,-8 24,-16 32,-24 8,-9 14,-17 17,-26 -6,0 -12,0 -19,0 -7,-1 -13,-1 -17,-1 -15,-1 -27,-4 -39,-8 -12,-5 -22,-10 -30,-18 -9,-7 -15,-16 -20,-27 -4,-11 -7,-23 -7,-37 0,-8 1,-17 3,-27 2,-9 5,-18 8,-27 4,-8 8,-17 13,-24 6,-8 12,-15 18,-21 7,-6 14,-10 22,-14 8,-3 17,-5 26,-5 11,0 21,2 30,6 9,4 18,9 25,16 8,7 15,15 21,24 6,9 11,19 15,29 5,11 8,22 11,33 3,11 5,22 6,33l1 0 8 0 0 0 0 0c11,0 20,-1 28,-1 8,-1 15,-2 21,-3 6,-2 11,-4 15,-6 5,-2 8,-5 11,-9 3,-5 5,-10 6,-15 0,-6 1,-12 0,-18 -1,-6 -2,-12 -4,-18 -1,-5 -2,-11 -4,-17l63 -18c2,7 3,13 4,18 2,5 3,11 4,16 1,5 1,10 2,15 1,5 2,11 3,17 0,4 1,8 2,12 1,5 2,9 4,13 3,4 6,7 9,10 4,2 9,4 15,4l0 0 0 0 5 0 3 0c9,0 17,-2 23,-6 7,-4 12,-9 17,-15 5,-6 9,-13 12,-20 4,-8 7,-15 11,-22 5,-9 9,-18 15,-26 5,-9 11,-17 18,-24 7,-7 15,-13 24,-17 9,-5 19,-7 30,-7 15,0 28,4 39,10 11,8 20,17 27,28 7,11 12,24 16,38 3,15 5,29 5,44 0,12 -2,23 -6,34 -3,10 -8,19 -14,26 -5,8 -12,14 -19,18 -7,4 -15,6 -22,6zm-28 -138c-4,0 -8,1 -11,5 -4,3 -7,7 -11,12 -3,4 -6,10 -8,15 -3,6 -5,11 -7,16 5,3 10,6 16,8 6,3 13,5 19,7 7,2 13,4 20,5 6,1 13,2 19,3 0,-9 0,-18 -2,-26 -1,-9 -4,-16 -7,-23 -3,-7 -8,-12 -12,-16 -5,-4 -10,-6 -16,-6zm-243 -118l-40 40 -42 -41 41 -42 41 41 41 -41 42 42 -42 42 -41 -41zm-209 117c-3,-1 -7,0 -10,3 -4,2 -8,6 -11,10 -4,5 -6,10 -9,15 -2,6 -3,11 -3,16 0,5 2,9 5,12 3,3 7,6 11,8 5,2 11,4 17,5 6,1 11,2 17,2 6,0 12,1 17,1l13 0c-2,-9 -4,-18 -7,-26 -3,-8 -7,-16 -11,-22 -3,-7 -8,-12 -13,-16 -5,-5 -10,-7 -16,-8zm-286 289c-25,0 -47,-4 -67,-10 -21,-6 -38,-16 -52,-28 -15,-13 -26,-29 -34,-47 -8,-19 -12,-41 -12,-66 0,-24 4,-48 11,-71 8,-24 19,-47 34,-70l48 35c-3,4 -6,10 -10,17 -4,8 -7,17 -11,27 -4,10 -7,20 -9,32 -2,11 -4,21 -4,32 0,12 3,23 8,32 6,10 13,18 22,25 9,7 19,12 31,16 12,4 24,6 37,6 15,1 29,-1 44,-6 14,-4 26,-10 37,-17 10,-8 18,-17 24,-28 7,-10 9,-22 9,-34 -1,-6 -2,-13 -4,-21 -2,-8 -4,-16 -7,-24 -3,-8 -6,-16 -9,-24 -4,-8 -7,-15 -10,-22 -3,-7 -5,-12 -7,-17 -3,-5 -4,-8 -5,-10l59 -32c1,0 2,3 5,8 2,5 4,12 8,20 3,8 6,17 10,27 3,10 6,21 9,32 3,10 5,21 7,32 2,11 3,21 3,30 0,13 -1,25 -4,38 -3,13 -7,25 -13,36 -6,12 -14,23 -23,33 -9,9 -19,18 -32,25 -12,8 -26,13 -41,17 -16,4 -33,7 -52,7zm2 -260l-48 -48 48 -48 48 48 -48 48zm-466 111c1,-11 2,-24 2,-36 1,-13 2,-25 2,-38 1,-12 1,-24 1,-36 0,-11 0,-22 0,-32 -1,-22 -2,-40 -3,-57 -1,-16 -1,-30 -2,-42 -1,-13 -2,-23 -3,-32 -1,-10 -1,-18 -2,-26l66 -21c2,17 4,33 5,49 1,16 2,31 3,46 0,14 1,28 1,40 0,12 0,23 0,33 0,9 0,20 0,32 0,11 0,23 0,36 0,12 -1,24 -1,37 0,13 -1,25 -2,37l-67 10zm-56 -345c1,-6 4,-13 7,-19 4,-6 8,-12 14,-17 5,-5 11,-9 17,-12 6,-3 12,-5 19,-5 7,0 13,1 18,3 5,1 10,3 15,5 6,3 12,4 16,5 5,1 9,1 13,-1 4,-1 8,-3 12,-6 3,-4 7,-8 11,-14l30 19c0,1 -1,2 -2,4 -2,2 -4,5 -6,7 -3,3 -6,6 -10,10 -3,3 -7,6 -12,9 -4,2 -9,5 -14,7 -5,1 -11,2 -17,3 -5,0 -11,-1 -15,-2 -5,-2 -10,-3 -14,-5 -5,-2 -9,-3 -14,-5 -4,-1 -10,-2 -15,-2 -4,1 -7,2 -9,4 -2,2 -4,5 -5,8 -2,3 -3,6 -3,9 -1,3 -2,6 -2,8l-33 -11 10 22 -143 67c7,5 14,11 21,17 8,7 15,14 22,22 7,8 14,17 20,26 6,9 12,18 16,27 5,10 9,19 11,28 3,10 4,19 4,28 0,15 -3,29 -8,42 -6,13 -13,24 -23,34 -10,9 -21,16 -35,22 -13,5 -27,8 -43,8l-59 0 -6 0 -1 0 -2 0 0 0c-17,0 -31,-3 -43,-7 -13,-5 -23,-12 -31,-20 -8,-9 -13,-19 -17,-30 -3,-12 -5,-25 -5,-38 0,-7 0,-16 0,-26 0,-10 1,-22 1,-36 0,-13 0,-28 -1,-44 0,-16 0,-33 -1,-49 0,-16 -1,-32 -3,-47 -1,-15 -2,-28 -5,-39l65 -19c2,9 3,20 5,33 1,13 2,27 2,41 1,14 2,28 2,42 0,14 1,28 1,40 0,11 0,22 -1,34 0,12 -1,23 -1,34 0,11 0,21 0,29 1,9 2,16 4,20 2,4 3,6 5,8 2,2 4,3 7,4 3,1 5,1 9,1 2,1 5,1 8,1l1 0 0 0 0 0 0 0 0 0 0 0 1 0 0 0 6 0 12 0c8,0 16,0 25,-1 9,0 17,0 25,-1 9,-2 16,-3 23,-5 6,-3 12,-6 16,-10 4,-5 7,-10 8,-17 2,-7 1,-15 -2,-25 -1,-4 -3,-8 -7,-13 -3,-5 -7,-11 -12,-17 -5,-6 -11,-12 -17,-19 -7,-7 -14,-14 -21,-21 -7,-7 -15,-14 -23,-21 -8,-8 -16,-14 -24,-21l7 -59 181 -80 15 33zm-555 244c6,4 13,8 22,12 8,4 16,7 25,10 8,4 17,6 25,8 8,2 15,3 20,3 4,0 8,0 14,-1 6,0 12,-1 17,-3 6,-2 11,-4 15,-7 5,-3 7,-7 7,-12 0,-5 -1,-12 -5,-19 -3,-7 -8,-14 -14,-22 -6,-8 -13,-15 -21,-23 -8,-8 -16,-16 -24,-23 -8,-7 -17,-14 -25,-20 -9,-6 -16,-12 -23,-16l38 -57c14,10 28,21 41,33 14,12 27,25 38,38 12,14 22,28 31,42 8,15 14,29 18,44 1,4 2,8 2,13 1,4 1,8 1,12 0,13 -3,26 -8,37 -5,11 -12,21 -21,29 -10,8 -21,14 -34,18 -13,5 -27,7 -42,7 -2,0 -3,0 -4,0 -1,0 -2,0 -3,0 -10,0 -20,-1 -31,-3 -10,-2 -21,-5 -31,-8 -10,-4 -20,-8 -29,-13 -10,-4 -19,-9 -27,-14l28 -65zm-130 -38c-4,0 -8,1 -11,5 -4,3 -7,7 -11,12 -3,4 -6,10 -8,15 -3,6 -5,11 -7,16 5,3 10,6 16,8 6,3 13,5 19,7 7,2 13,4 20,5 6,1 13,2 19,3 0,-9 0,-18 -2,-26 -1,-9 -4,-16 -7,-23 -3,-7 -7,-12 -12,-16 -5,-4 -10,-6 -16,-6zm-259 202l-40 41 -42 -42 41 -42 41 41 41 -40 42 41 -42 42 -41 -41z"/>
 </g>
</svg>
