<?xml version="1.0" encoding="UTF-8"?>
<!DOCTYPE svg PUBLIC "-//W3C//DTD SVG 1.0//EN" "http://www.w3.org/TR/2001/REC-SVG-20010904/DTD/svg10.dtd">
<!-- Creator: CorelDRAW 2017 -->
<svg xmlns="http://www.w3.org/2000/svg" xml:space="preserve" width="580px" height="580px" version="1.0" shape-rendering="geometricPrecision" text-rendering="geometricPrecision" image-rendering="optimizeQuality" fill-rule="evenodd" clip-rule="evenodd"
viewBox="0 0 71376 71376"
 xmlns:xlink="http://www.w3.org/1999/xlink">
 <g id="Layer_x0020_1">
  <metadata id="CorelCorpID_0Corel-Layer"/>
  <path fill="#FEFEFE" d="M0 0l71376 0 0 71376 -71376 0 0 -71376zm57034 14852c-242,-922 -609,-1806 -1096,-2636l868 -1737 -2877 -2878 -1738 869c-829,-488 -1713,-856 -2637,-1096l-613 -1839 -4069 0 -613 1839c-924,240 -1808,608 -2637,1096l-1739 -869 -2877 2877 869 1737c-487,830 -855,1714 -1097,2637l-1838 613 0 2036 -18697 0c-2062,0 -3739,1677 -3739,3739l0 22436c0,2062 1677,3740 3739,3740l9722 0 0 2991 -2991 0 0 1496 25428 0 0 -1496 -2992 0 0 -2991 9723 0c2062,0 3739,-1678 3739,-3740l0 -28211 -1838 -613zm-2237 48484l367 0c108,0 228,-9 357,-26 130,-18 251,-48 363,-88 111,-40 206,-93 281,-161 76,-68 114,-152 114,-253 0,-62 -18,-153 -55,-276 -35,-122 -82,-259 -142,-408 -59,-151 -125,-310 -201,-474 -74,-164 -149,-320 -223,-470l1103 -549c73,163 144,336 215,518 71,183 134,368 190,556 57,188 103,374 138,561 34,186 52,365 52,535 0,308 -52,572 -156,794 -102,222 -247,404 -431,546 -185,143 -407,248 -663,315 -257,66 -541,100 -849,100l-460 0 -77 0 -2 0 -3 0 -3 0 -3 0 -65 0 0 -2c-43,-2 -92,-5 -148,-10 -92,-7 -198,-37 -317,-85 -56,319 -162,622 -318,909 -155,287 -347,555 -576,806 -230,250 -490,482 -783,692 -294,212 -606,401 -937,568l-707 -976c183,-93 367,-194 551,-303 187,-110 363,-225 531,-348 169,-122 326,-250 471,-381 146,-133 272,-269 380,-411 108,-142 193,-287 255,-435 61,-148 92,-297 92,-448 0,-101 -19,-228 -58,-383 -38,-154 -87,-320 -146,-497 -59,-177 -124,-356 -197,-537 -72,-180 -142,-344 -208,-494l1115 -485c102,308 201,565 294,771 95,205 185,371 272,494 88,124 172,210 253,260 80,49 159,74 237,75l4 0 93 0zm1095 3333l-857 -856 857 -856 856 856 -856 856zm-7032 -3333l367 0c108,0 228,-9 356,-26 130,-18 252,-48 364,-88 111,-40 205,-93 281,-161 75,-68 114,-152 114,-253 0,-62 -18,-153 -55,-276 -35,-122 -83,-259 -142,-408 -59,-151 -126,-310 -201,-474 -74,-164 -149,-320 -223,-470l1103 -549c72,163 143,336 214,518 71,183 135,368 191,556 56,188 102,374 138,561 34,186 51,365 51,535 0,308 -51,572 -155,794 -102,222 -247,404 -432,546 -185,143 -406,248 -662,315 -258,66 -541,100 -849,100l-460 0 -108 0 -15 0 -31 0 0 0c-301,-4 -559,-48 -772,-130 -223,-86 -406,-205 -549,-356 -140,-153 -242,-332 -306,-539 -62,-207 -94,-431 -94,-672 0,-125 3,-278 7,-462 6,-183 9,-396 9,-639 0,-241 -1,-507 -4,-795 -3,-290 -11,-580 -21,-871 -12,-290 -28,-570 -50,-837 -23,-268 -52,-500 -92,-698l1153 -351c34,169 63,370 85,599 20,231 38,472 51,723 12,253 23,506 29,760 7,255 11,491 13,710 3,194 0,397 -9,608 -9,213 -16,416 -21,609 -6,195 -4,370 5,527 10,158 34,276 72,359 22,59 52,104 86,135 35,31 75,54 123,69 46,17 96,25 152,28 48,2 100,3 158,3l3 0 4 0 3 0 3 0 3 0 3 0 3 0 3 0 104 0zm1077 -3111l-857 -857 857 -857 856 857 -856 857zm-4788 4319c-155,0 -315,-16 -479,-48 -164,-33 -325,-76 -483,-129 -159,-55 -311,-117 -456,-188 -145,-71 -275,-143 -387,-217 -86,112 -176,207 -272,284 -96,75 -200,136 -309,182 -110,47 -228,79 -355,99 -127,19 -265,29 -411,29l-37 0 -113 0 -5 0 -5 0 -5 0 -28 0 0 0c-97,-2 -207,-13 -331,-29 -142,-20 -290,-65 -444,-138 -107,-50 -202,-109 -284,-174 -81,-67 -158,-150 -233,-250 -130,19 -257,31 -380,38 -121,9 -241,12 -357,12 -251,0 -488,-25 -710,-77 -220,-52 -414,-132 -578,-239 -164,-108 -294,-246 -390,-413 -95,-167 -142,-367 -142,-602 0,-177 32,-344 98,-503 66,-158 152,-306 258,-443 107,-138 228,-264 363,-379 136,-114 272,-216 409,-306 138,-90 269,-166 398,-228 127,-62 238,-109 333,-143 -2,-31 -5,-62 -8,-95 -3,-31 -4,-71 -7,-117 -3,-46 -7,-100 -12,-162 -6,-61 -12,-138 -19,-228l1204 -258c53,484 105,925 153,1323 49,399 92,742 131,1030 37,289 68,515 91,679 25,164 40,251 45,262 38,83 96,140 171,173 75,30 174,46 299,47l6 0 6 0 86 0 37 0c170,0 313,-34 429,-103 115,-70 214,-160 297,-269 81,-108 155,-230 217,-363 64,-131 129,-261 195,-387 77,-157 164,-314 261,-470 96,-157 207,-299 334,-425 125,-126 268,-229 426,-308 158,-78 335,-116 534,-116 270,0 502,62 696,186 194,126 355,288 481,491 125,201 219,430 279,686 61,256 90,513 90,774 0,218 -31,420 -96,606 -63,185 -148,344 -251,478 -102,134 -219,238 -349,315 -129,75 -260,113 -391,113zm-493 -2472c-76,0 -145,28 -209,86 -65,57 -126,130 -182,214 -56,84 -106,177 -152,278 -45,101 -86,192 -121,278 84,53 181,104 289,149 108,48 219,88 336,123 116,34 232,64 351,86 118,24 232,40 340,50 12,-157 4,-310 -24,-463 -28,-150 -72,-286 -133,-405 -61,-118 -133,-214 -219,-287 -84,-74 -177,-109 -276,-109zm-4904 732c54,0 111,-2 168,-6 58,-3 114,-7 167,-13 -7,-43 -14,-92 -20,-145 -6,-52 -14,-117 -24,-193 -9,-75 -19,-167 -32,-272 -12,-105 -27,-233 -42,-386 -99,49 -207,108 -328,176 -121,68 -235,141 -342,216 -106,76 -196,153 -268,231 -72,78 -107,152 -107,219 0,32 28,60 85,83 58,22 130,40 215,53 86,15 174,24 270,29 95,5 181,8 258,8zm-4787 532l367 0c108,0 227,-9 356,-26 130,-18 251,-48 364,-88 111,-40 205,-93 281,-161 75,-68 114,-152 114,-253 0,-62 -18,-153 -55,-276 -36,-122 -83,-259 -142,-408 -59,-151 -126,-310 -201,-474 -74,-164 -150,-320 -224,-470l1104 -549c72,163 143,336 214,518 71,183 135,368 191,556 56,188 102,374 137,561 34,186 52,365 52,535 0,308 -52,572 -155,794 -102,222 -247,404 -432,546 -185,143 -407,248 -662,315 -258,66 -542,100 -849,100l-460 0 -154 0 -93 0c-101,377 -261,720 -481,1028 -219,308 -482,575 -788,805 -306,227 -646,417 -1020,566 -375,149 -765,254 -1172,316l-285 -1184c362,-73 693,-163 991,-272 298,-110 560,-231 785,-367 226,-135 413,-278 560,-429 148,-152 253,-306 314,-463 -111,0 -228,-3 -350,-6 -125,-4 -225,-9 -305,-14 -255,-20 -487,-68 -695,-144 -209,-77 -388,-180 -538,-313 -150,-132 -267,-293 -350,-484 -81,-191 -122,-410 -122,-657 0,-156 16,-316 50,-482 33,-164 81,-325 143,-482 64,-156 142,-304 237,-443 93,-139 200,-261 318,-367 118,-105 248,-188 392,-249 142,-60 296,-90 460,-90 197,0 375,36 541,107 164,69 315,165 453,287 137,121 260,263 366,426 107,164 200,338 278,524 79,187 142,380 193,579 50,199 85,396 106,588l12 0 154 0zm1076 -3111l-856 -857 856 -857 857 857 -857 857zm-3179 1823c-53,-10 -116,8 -185,56 -70,48 -133,111 -192,193 -59,81 -110,170 -151,267 -42,99 -61,193 -58,283 3,87 31,159 84,216 55,56 125,103 209,140 84,37 180,65 287,83 108,18 213,31 319,38 105,9 204,12 296,12l240 0c-39,-159 -85,-312 -136,-458 -54,-147 -114,-278 -184,-394 -69,-116 -148,-212 -235,-289 -89,-77 -186,-126 -294,-147zm-5154 1288l772 0c111,0 232,-6 367,-18 133,-10 259,-34 375,-70 117,-36 215,-89 293,-160 79,-71 119,-164 119,-280 0,-62 -20,-153 -57,-276 -37,-122 -85,-259 -146,-408 -61,-151 -129,-310 -204,-474 -77,-164 -151,-320 -226,-470l1103 -549c72,163 143,336 214,518 71,183 135,368 191,556 56,188 102,374 138,561 34,186 51,365 51,535 0,318 -59,589 -176,812 -116,222 -275,404 -476,544 -201,139 -436,241 -705,305 -271,62 -561,94 -868,94l-765 0 -124 0 -12 0 -18 0 0 0c-237,-4 -463,-48 -676,-131 -221,-88 -412,-235 -575,-444 -15,21 -31,38 -46,53 -14,17 -29,31 -42,48l0 -5c-140,147 -299,263 -480,349 -182,86 -377,130 -585,130 -234,0 -450,-50 -646,-150 -197,-101 -361,-237 -491,-410 -156,170 -330,307 -525,412 -196,107 -410,159 -645,159 -218,0 -422,-49 -609,-147 -188,-97 -344,-230 -468,-401 -137,193 -310,330 -514,413 -188,76 -416,117 -685,123l0 1 -58 0 -15 0 -81 0 -347 0c53,102 93,206 118,311 24,103 37,192 40,268 -14,241 -74,456 -184,646 -109,189 -250,355 -423,500 -171,143 -366,266 -585,365 -219,100 -442,183 -672,245 -229,64 -454,110 -677,138 -222,28 -424,41 -608,41 -278,0 -545,-19 -806,-59 -260,-40 -502,-102 -729,-188 -226,-84 -433,-193 -619,-327 -187,-134 -346,-295 -481,-485 -133,-189 -236,-406 -310,-655 -73,-248 -110,-529 -110,-843 0,-226 10,-442 30,-646 19,-204 48,-407 90,-608 41,-201 94,-403 160,-609 66,-206 145,-424 238,-657l991 413c-74,186 -138,354 -191,503 -54,148 -98,284 -133,407 -36,121 -65,233 -85,337 -20,103 -37,201 -47,295 -10,94 -16,187 -19,277 -2,92 -3,188 -3,288 0,193 31,360 91,502 63,142 147,260 252,359 105,98 226,178 364,241 137,62 281,111 430,144 149,34 300,57 454,69 152,13 297,19 433,19 67,0 166,-4 298,-13 131,-9 275,-24 430,-46 155,-22 315,-50 478,-87 164,-36 312,-80 446,-133 133,-52 243,-114 327,-185 86,-71 129,-154 129,-248 -187,-139 -439,-264 -760,-375 -323,-111 -716,-195 -1182,-251l158 -1173 3014 0 72 0 7 0 6 0c133,-1 256,-23 371,-66 118,-46 229,-133 335,-262 105,-129 204,-309 296,-543 93,-235 182,-541 266,-918l1024 146c-3,14 -8,30 -12,51 -15,63 -34,155 -56,272 -23,117 -43,248 -63,393 -19,145 -28,284 -26,417 1,132 16,247 46,343 29,96 83,154 156,172 80,20 157,4 233,-49 74,-52 144,-129 211,-228 67,-99 129,-214 185,-347 58,-132 108,-268 155,-407 46,-139 86,-275 120,-408 33,-135 59,-253 77,-355l1017 146c-4,64 -13,150 -26,256 -14,108 -24,220 -31,342 -8,121 -11,242 -9,365 1,121 15,232 40,331 26,99 66,181 119,243 55,63 129,94 224,94 86,0 158,-28 220,-84 62,-56 114,-130 157,-222 41,-91 75,-195 102,-312 25,-117 44,-236 58,-358 13,-119 19,-238 19,-352 0,-115 -5,-216 -12,-303l1041 -146 129 1087c14,118 49,222 99,309 52,87 112,160 182,217 69,59 143,102 220,132 74,29 145,43 212,44l4 0 3 0 124 0zm1352 2350l-725 725 -750 -744 741 -745 734 733 724 -725 750 744 -741 746 -733 -734zm-6268 -3993l-2 0c7,-20 8,-20 2,0zm-1314 -23252l14210 0 0 -1496 -14210 0 0 1496zm0 -2991l11218 0 0 -1496 -11218 0 0 1496zm12714 0l1496 0 0 -1496 -1496 0 0 1496zm-12714 -2992l14210 0 0 -1496 -14210 0 0 1496zm0 -2991l14210 0 0 -1496 -14210 0 0 1496zm0 -2992l1496 0 0 -1496 -1496 0 0 1496zm2992 0l11218 0 0 -1496 -11218 0 0 1496zm-2992 -2991l14210 0 0 -1496 -14210 0 0 1496zm18697 7478l0 -747c0,-1237 -1007,-2244 -2243,-2244l-748 0 0 1496 748 0c411,0 747,335 747,748l0 747c0,892 393,1696 1015,2244 -622,548 -1015,1352 -1015,2244l0 747c0,413 -336,748 -747,748l-748 0 0 1496 748 0c1236,0 2243,-1007 2243,-2244l0 -747c0,-825 671,-1496 1496,-1496l0 -1496c-825,0 -1496,-671 -1496,-1496zm-23184 -7478l0 747c0,825 -671,1496 -1496,1496l0 1496c825,0 1496,671 1496,1496l0 748c0,1236 1007,2243 2244,2243l748 0 0 -1495 -748 0c-412,0 -748,-336 -748,-748l0 -748c0,-892 -393,-1696 -1015,-2244 622,-548 1015,-1351 1015,-2244l0 -747c0,-413 336,-748 748,-748l748 0 0 -1496 -748 0c-1237,0 -2244,1007 -2244,2244zm29915 -8975c-1650,0 -2991,1342 -2991,2992 0,1649 1341,2991 2991,2991 1650,0 2992,-1342 2992,-2991 0,-1650 -1342,-2992 -2992,-2992zm0 4487c-825,0 -1496,-670 -1496,-1495 0,-825 671,-1496 1496,-1496 825,0 1496,671 1496,1496 0,825 -671,1495 -1496,1495zm0 -8974c-4124,0 -7479,3355 -7479,7479 0,4124 3355,7478 7479,7478 4124,0 7479,-3354 7479,-7478 0,-4124 -3355,-7479 -7479,-7479zm0 13462c-3299,0 -5983,-2684 -5983,-5983 0,-3299 2684,-5983 5983,-5983 3299,0 5983,2684 5983,5983 0,3299 -2684,5983 -5983,5983zm-2991 26923l-16454 0 0 -2991 16454 0 0 2991zm11218 -4487l-38890 0c-1237,0 -2244,-1007 -2244,-2244l0 -748 43377 0 0 748c0,1237 -1007,2244 -2243,2244zm2243 -4487l-43377 0 0 -20193c0,-1237 1007,-2244 2244,-2244l18697 0 0 540 1838 613c242,923 609,1807 1097,2636l-869 1738 2877 2877 1738 -869c829,488 1713,856 2637,1097l613 1839 4069 0 614 -1839c923,-241 1807,-608 2636,-1097l1738 869 2878 -2877 -869 -1738c487,-829 854,-1713 1096,-2636l343 -114 0 21398zm0 -22976l-1614 539 -90 415c-226,1041 -637,2027 -1219,2933l-230 358 764 1526 -1353 1353 -1526 -764 -359 231c-905,582 -1892,993 -2931,1219l-416 90 -540 1614 -1913 0 -539 -1614 -416 -90c-1040,-226 -2026,-637 -2931,-1219l-359 -231 -1526 764 -1353 -1353 764 -1526 -230 -358c-583,-906 -993,-1892 -1219,-2933l-90 -415 -1614 -539 0 -1913 1614 -539 90 -416c226,-1040 636,-2027 1219,-2932l230 -359 -764 -1525 1353 -1353 1526 763 359 -230c905,-583 1892,-993 2931,-1219l416 -90 540 -1614 1913 0 539 1614 416 91c1040,226 2026,636 2931,1218l359 231 1526 -764 1353 1353 -764 1526 230 358c583,906 993,1893 1219,2933l90 416 1614 538 0 1913z"/>
 </g>
</svg>
