<?xml version="1.0" encoding="UTF-8"?>
<!DOCTYPE svg PUBLIC "-//W3C//DTD SVG 1.0//EN" "http://www.w3.org/TR/2001/REC-SVG-20010904/DTD/svg10.dtd">
<!-- Creator: CorelDRAW 2017 -->
<svg xmlns="http://www.w3.org/2000/svg" xml:space="preserve" width="580px" height="580px" version="1.0" shape-rendering="geometricPrecision" text-rendering="geometricPrecision" image-rendering="optimizeQuality" fill-rule="evenodd" clip-rule="evenodd"
viewBox="0 0 42063 42063"
 xmlns:xlink="http://www.w3.org/1999/xlink">
 <g id="Layer_x0020_1">
  <metadata id="CorelCorpID_0Corel-Layer"/>
  <path fill="#FEFEFE" d="M0 0l42063 0 0 42063 -42063 0 0 -42063zm7495 39610c-260,0 -497,-33 -712,-101 -213,-66 -396,-166 -549,-298 -151,-133 -270,-298 -355,-496 -83,-198 -125,-427 -125,-690 0,-251 39,-503 119,-753 80,-250 197,-495 353,-733l512 367c-31,41 -65,103 -106,184 -41,82 -81,175 -119,280 -38,105 -70,216 -96,334 -25,117 -38,230 -38,340 0,125 29,238 85,340 57,101 133,189 228,262 94,72 204,130 327,170 123,41 252,63 386,66 160,3 314,-17 463,-63 148,-44 278,-107 390,-188 111,-81 199,-178 262,-288 64,-112 93,-233 87,-364 -3,-64 -15,-138 -36,-220 -22,-81 -47,-166 -77,-251 -29,-86 -62,-171 -98,-255 -35,-84 -68,-161 -100,-231 -30,-69 -57,-129 -80,-179 -23,-50 -37,-84 -44,-102l619 -344c6,7 21,36 45,89 25,53 53,121 86,206 32,84 67,179 104,288 37,107 71,218 102,333 30,115 55,230 75,344 21,113 32,218 32,313 0,135 -16,270 -46,403 -30,133 -77,261 -140,383 -63,122 -142,235 -236,339 -95,103 -207,194 -336,270 -129,77 -275,137 -439,180 -163,43 -344,65 -543,65zm25128 -33478l-2798 0 0 -800c0,-221 -179,-399 -400,-399l-3997 0c-221,0 -400,178 -400,399l0 800 -15589 0c-221,0 -400,179 -400,399l0 1599c0,221 179,400 400,400l1199 0 0 7595c0,221 179,400 400,400 221,0 400,179 400,399 0,221 -179,400 -400,400 -221,0 -400,-179 -400,-400l-799 0c1,293 110,575 306,792l-1026 1367 5 4c-53,67 -83,150 -85,236l0 1599c0,106 43,207 118,282l799 800c75,75 177,117 283,117l1598 0c106,0 208,-42 283,-117l800 -800c74,-75 117,-176 117,-282l0 -1599c-2,-86 -32,-169 -85,-236l5 -4 -1026 -1367c267,-296 368,-707 269,-1093 -99,-387 -386,-698 -762,-829l0 -7264 13590 0 0 400c0,221 179,399 400,399l799 0 0 18788 -1599 0 0 -15989 -799 0 0 1599 -2398 0 0 -800 -800 0 0 800 -2398 0 0 -400 -799 0 0 400 -2399 0 0 -1200 5197 0 0 -799 -5197 0 0 -1599 -799 0 0 17988 -634 0 -1882 -1882c-156,-156 -409,-156 -565,0l-1881 1882 -235 0 0 799 23984 0 0 -799 -312 0c281,-307 381,-740 263,-1139 -117,-399 -436,-708 -839,-814 203,-501 47,-1075 -383,-1403 -430,-329 -1026,-329 -1456,0 -429,328 -586,902 -383,1403 -403,106 -721,415 -839,814 -118,399 -18,832 263,1139l-711 0 0 -18788 799 0c221,0 400,-178 400,-399l0 -400 2798 0c221,0 400,-179 400,-400l0 -1599c0,-220 -179,-399 -400,-399zm-21385 11991l599 800 -1598 0 599 -800 400 0zm999 2633l-565 565 -1268 0 -565 -565 0 -1034 2398 0 0 1034zm18667 -13825l-1079 720 0 -720 1079 0zm-5076 -1199l1599 0 0 1599 -1599 0 0 -1599zm-10793 1279l1080 720 -2159 0 1079 -720zm-2398 640l-1079 -720 2158 0 -1079 720zm3717 -720l2159 0 -1079 720 -1080 -720zm3478 80l1079 720 -2158 0 1079 -720zm1319 -80l2158 0 -1079 720 -1079 -720zm-11312 0l280 0 1199 800 -1479 0 0 -800zm13710 800l1199 -800 280 0 0 800 -1479 0zm4277 19067l-719 -1080 719 -1079 0 2159zm0 -9594l-719 -1079 719 -1079 0 2158zm-799 240l719 1079 -719 1079 0 -2158zm0 -2638l0 -2159 719 1080 -719 1079zm0 7435l719 1079 -719 1079 0 -2158zm799 -242l-719 -1077 719 -1080 0 2157zm-719 -10671l719 -1079 0 2158 -719 -1079zm-80 -1319l0 -680 452 0 -452 680zm-3198 4517l0 3997 -2398 0 0 -3997 2398 0zm-3198 0l0 3438 -919 -909c-74,-73 -175,-115 -280,-115l-1199 0 0 -2414 2398 0zm-3197 0l0 666 -2399 0 0 -666 2399 0zm-5996 12557l1033 1034 -2067 0 1034 -1034zm3597 1034l0 -12125 2399 0 0 1349c0,221 179,400 399,400l1435 0 1483 1466c75,74 175,115 280,116l2798 0 0 8794 -8794 0zm11992 -1080l719 1080 -719 0 0 -1080zm4796 680c-220,0 -399,-179 -399,-400 0,-221 179,-400 399,-400 221,0 400,179 400,400 0,221 -179,400 -400,400zm-799 -2398c221,0 400,179 400,399 0,221 -179,400 -400,400 -221,0 -400,-179 -400,-400 0,-220 179,-399 400,-399zm-799 1598c220,0 399,179 399,400 0,221 -179,400 -399,400 -221,0 -400,-179 -400,-400 0,-221 179,-400 400,-400zm-1200 -18387l-3197 0 0 -400 1998 0c221,0 400,-178 400,-399l0 -1999 799 0 0 2798zm2119 -799l1079 -720 0 720 -1079 0zm-8914 19586l800 0 0 -799 -800 0 0 799zm-1599 0l800 0 0 -799 -800 0 0 799zm-1598 0l799 0 0 -799 -799 0 0 799zm-1599 0l799 0 0 -799 -799 0 0 799zm-1599 0l799 0 0 -799 -799 0 0 799zm6395 -1599l800 0 0 -799 -800 0 0 799zm-1599 0l800 0 0 -799 -800 0 0 799zm-1598 0l799 0 0 -799 -799 0 0 799zm-1599 0l799 0 0 -799 -799 0 0 799zm-1599 0l799 0 0 -799 -799 0 0 799zm6395 -1599l800 0 0 -799 -800 0 0 799zm-1599 0l800 0 0 -799 -800 0 0 799zm-1598 0l799 0 0 -799 -799 0 0 799zm-1599 0l799 0 0 -799 -799 0 0 799zm-1599 0l799 0 0 -799 -799 0 0 799zm6395 -1599l800 0 0 -799 -800 0 0 799zm-1599 0l800 0 0 -799 -800 0 0 799zm-1598 0l799 0 0 -799 -799 0 0 799zm-1599 0l799 0 0 -799 -799 0 0 799zm-1599 0l799 0 0 -799 -799 0 0 799zm6395 -1598l800 0 0 -800 -800 0 0 800zm-1599 0l800 0 0 -800 -800 0 0 800zm-1598 0l799 0 0 -800 -799 0 0 800zm-1599 0l799 0 0 -800 -799 0 0 800zm-1599 0l799 0 0 -800 -799 0 0 800zm3198 -1599l799 0 0 -800 -799 0 0 800zm-1599 0l799 0 0 -800 -799 0 0 800zm-1599 0l799 0 0 -800 -799 0 0 800zm19833 18714c-92,0 -186,-10 -282,-29 -97,-19 -192,-45 -285,-76 -94,-32 -183,-69 -269,-111 -85,-41 -162,-84 -228,-128 -51,67 -104,122 -160,168 -57,44 -118,80 -183,107 -64,28 -134,47 -209,58 -75,12 -156,18 -242,18l-23 0 -90 0 -33 0c-66,0 -130,17 -192,52 -63,35 -118,79 -166,135 -47,55 -85,118 -114,187 -29,70 -43,139 -43,207 0,30 2,59 7,85 4,27 13,53 25,81 12,27 28,56 49,87 20,30 46,62 78,97l-417 507c-181,-110 -341,-224 -479,-339 -138,-115 -257,-232 -358,-353 -101,-121 -186,-243 -255,-367 -68,-124 -125,-251 -169,-379l-196 0 -49 0 -7 0 -34 0 0 -1c-130,-4 -240,-24 -332,-61 -101,-41 -190,-97 -266,-168 -109,80 -238,138 -385,175 -147,36 -323,54 -529,55l-7 0 -59 0 -4 0 -4 0 -5 0 -12 0 0 -1c-82,-1 -156,-6 -220,-18 -70,-12 -133,-29 -188,-51 -56,-22 -104,-49 -148,-79 -43,-32 -84,-67 -121,-104 -70,47 -140,86 -209,119 -70,33 -143,59 -219,79 -76,19 -155,34 -237,42 -83,8 -172,13 -268,13 -198,0 -393,-39 -583,-115 -190,-75 -366,-197 -529,-366l413 -579c74,68 145,124 215,167 70,43 137,77 200,101 64,24 124,41 181,50 57,9 110,14 160,14 41,0 85,-3 132,-8 47,-6 94,-15 140,-26 46,-12 90,-28 131,-46 41,-18 76,-41 107,-68 -58,-140 -120,-284 -188,-435 -68,-151 -136,-302 -203,-455 -68,-153 -136,-303 -203,-454 -67,-150 -129,-294 -186,-431l664 -278 749 1812c28,67 53,125 76,175 23,50 49,92 80,125 32,33 68,58 112,74 42,15 95,23 161,24l3 0 3 0 59 0 7 0c205,-1 361,-35 466,-102 106,-68 159,-171 159,-307 0,-46 -6,-110 -18,-193 -12,-82 -37,-191 -75,-326l643 -157c25,83 45,157 60,222 16,64 29,123 38,176 9,53 16,102 21,147 4,45 8,88 11,131 3,42 7,87 13,135 6,48 18,91 36,132 17,41 41,75 72,102 31,26 71,39 122,40l2 0 3 0 49 0 71 0c4,-101 20,-209 47,-326 26,-118 62,-236 107,-355 46,-119 99,-234 162,-346 62,-111 131,-211 206,-299 75,-88 156,-159 244,-214 88,-56 179,-87 275,-93 101,2 196,30 282,86 86,55 160,128 222,217 61,89 109,191 144,305 35,113 52,228 52,345 0,138 -29,272 -88,402 -59,130 -137,252 -233,366 -95,112 -203,214 -326,304 -122,90 -246,164 -373,222 10,36 33,79 67,131 34,50 72,101 116,153 43,52 87,100 130,146 44,45 81,81 112,109 -2,-88 11,-178 38,-270 27,-92 66,-180 115,-265 49,-85 107,-164 174,-239 67,-76 138,-141 215,-197 77,-56 156,-100 238,-134 81,-32 163,-48 243,-48l23 0 90 0 23 0c100,0 185,-20 253,-61 68,-41 126,-94 175,-159 48,-64 91,-135 128,-214 37,-77 76,-154 115,-228 45,-92 97,-185 153,-277 57,-92 122,-176 197,-250 74,-74 158,-135 251,-181 94,-47 198,-69 315,-69 159,0 296,36 410,110 115,74 210,170 284,289 74,119 129,254 164,404 36,151 54,303 54,456 0,129 -19,248 -57,357 -38,109 -87,203 -148,282 -60,79 -129,140 -206,186 -76,44 -153,67 -230,67zm-291 -1457c-44,0 -85,16 -123,50 -38,34 -74,77 -107,126 -33,50 -63,105 -90,164 -26,60 -50,114 -71,164 49,31 107,61 170,88 64,28 129,52 198,73 68,19 137,37 207,50 70,14 137,24 200,30 7,-93 3,-183 -14,-273 -16,-89 -42,-169 -78,-239 -36,-70 -79,-126 -129,-169 -50,-44 -105,-64 -163,-64zm-2695 165c4,-43 3,-87 -1,-135 -3,-48 -11,-94 -22,-139 -12,-45 -27,-85 -47,-122 -19,-36 -44,-63 -73,-81 -28,15 -60,44 -94,88 -34,42 -69,94 -103,154 -35,60 -69,125 -102,198 -32,71 -61,144 -87,219 -26,74 -47,147 -62,217 -16,71 -25,134 -27,190 66,-12 133,-37 203,-74 71,-37 136,-83 197,-137 59,-53 109,-113 150,-177 41,-66 64,-133 68,-201zm-2216 -867l-504 -505 504 -505 505 505 -505 505zm-7313 1447c111,-1 206,-32 283,-92 78,-62 144,-142 200,-242 55,-100 102,-214 141,-343 39,-128 75,-258 110,-392l605 109c-12,53 -27,115 -44,186 -18,70 -34,144 -48,219 -14,76 -27,149 -35,222 -10,72 -12,135 -6,190 5,54 19,97 42,128 23,31 58,43 104,36 61,-6 116,-27 166,-64 48,-38 93,-87 132,-146 39,-59 74,-126 105,-200 30,-74 56,-151 78,-229 22,-80 40,-157 55,-235 14,-77 26,-148 35,-211l578 97c-2,46 -7,102 -16,169 -10,66 -17,136 -25,210 -8,73 -12,148 -12,221 0,73 8,139 25,198 17,58 44,105 83,142 39,36 93,54 163,54 42,0 86,-7 129,-21 44,-15 84,-35 119,-62 35,-26 63,-58 85,-94 22,-37 33,-78 33,-123 0,-79 -13,-166 -39,-261 -26,-94 -57,-188 -94,-281 -37,-93 -76,-181 -115,-265 -39,-84 -73,-153 -100,-212l564 -315 48 104c22,48 48,107 77,177 29,70 59,148 90,235 30,88 59,178 85,272 26,94 47,190 63,289 18,98 25,194 25,286 0,152 -21,288 -62,410 -41,121 -105,224 -189,309 -84,85 -190,150 -316,197 -126,47 -274,72 -444,74 -82,0 -156,-8 -223,-25 -67,-15 -127,-37 -181,-64 -54,-27 -101,-60 -142,-98 -41,-38 -77,-79 -109,-123 -36,47 -76,89 -117,127 -41,36 -89,68 -143,95 -54,27 -115,48 -181,62 -67,16 -143,24 -227,26 -74,1 -141,-6 -202,-20 -60,-14 -115,-35 -164,-62 -50,-27 -95,-60 -135,-100 -41,-38 -78,-81 -113,-128 -32,39 -69,76 -110,111 -41,34 -89,64 -145,90 -56,25 -121,45 -195,60 -72,13 -156,21 -251,22l-4 0 -4 0 -82 0 -205 0c31,60 55,121 70,183 14,61 22,113 23,157 -8,142 -43,270 -108,381 -64,112 -147,209 -249,295 -101,84 -216,157 -345,215 -129,59 -261,108 -396,145 -135,37 -267,64 -399,81 -131,16 -250,24 -358,24 -164,0 -322,-11 -475,-35 -153,-23 -296,-60 -430,-110 -133,-50 -255,-115 -365,-193 -110,-79 -204,-174 -283,-286 -79,-111 -139,-239 -183,-386 -43,-146 -65,-312 -65,-497 0,-133 6,-260 18,-380 11,-121 29,-240 53,-359 24,-118 56,-238 94,-359 39,-121 86,-250 140,-387l584 244c-43,109 -81,208 -112,296 -31,87 -58,167 -79,239 -20,72 -38,138 -49,199 -12,61 -22,119 -28,174 -6,55 -10,110 -11,163 -1,54 -2,111 -2,170 0,114 18,212 54,296 36,83 86,153 148,212 62,57 133,104 214,142 81,36 166,65 254,84 88,20 177,34 268,41 89,8 175,11 255,11 39,0 98,-2 175,-7 78,-6 162,-14 254,-27 91,-13 185,-30 281,-52 97,-21 184,-47 263,-78 79,-31 143,-67 193,-109 50,-42 76,-91 76,-147 -110,-82 -259,-155 -448,-220 -190,-65 -422,-115 -696,-148l93 -691 1776 0 45 0 5 0zm-5985 -785c-39,-21 -78,-40 -119,-57 -40,-18 -81,-34 -124,-49 -72,-26 -154,-47 -243,-64 -89,-17 -182,-20 -277,-9 -66,8 -129,25 -188,52 -60,27 -113,61 -159,101 -46,40 -83,86 -110,135 -28,51 -41,101 -41,153 0,73 23,137 68,192 45,55 104,101 173,137 71,37 149,64 234,82 84,18 167,26 247,23 87,-7 176,-18 270,-32 93,-14 181,-28 263,-43 46,-7 93,-16 140,-25 47,-9 94,-19 141,-29l94 707c-101,27 -226,54 -372,81 -146,27 -311,53 -495,75 -183,21 -383,39 -600,53 -216,14 -446,21 -689,21l-257 0 -86 0 -4 0 0 0c-87,-1 -163,-22 -227,-63 -64,-42 -123,-93 -176,-152 -21,23 -43,46 -64,71 -22,24 -44,46 -66,66 -21,19 -43,36 -64,49 -22,13 -45,20 -67,22 -78,4 -168,-2 -272,-18 -104,-15 -209,-39 -318,-70 -108,-31 -214,-68 -318,-113 -102,-43 -192,-91 -268,-143 -97,120 -209,209 -338,265 -118,52 -254,80 -410,85l0 1 -37 0 -8 0 -2 0 -1 0 -2 0 -2 0 -38 0 0 -2c-26,-1 -55,-3 -88,-5 -54,-5 -116,-22 -186,-51 -33,188 -96,367 -187,536 -92,169 -205,327 -340,475 -135,147 -289,284 -461,408 -174,125 -358,236 -553,335l-416 -576c108,-55 216,-114 325,-178 109,-65 213,-133 313,-205 99,-72 191,-147 277,-225 86,-78 160,-159 224,-242 63,-84 114,-169 150,-256 36,-88 54,-176 54,-264 0,-60 -11,-135 -34,-226 -22,-91 -51,-188 -86,-293 -35,-105 -73,-210 -116,-316 -42,-107 -83,-203 -123,-291l657 -286c61,181 119,333 174,454 56,121 109,218 160,291 52,73 101,124 149,153 47,29 94,44 140,45l2 0 10 0 5 0c98,-1 180,-21 248,-61 68,-41 126,-94 176,-157 48,-64 92,-135 129,-213 37,-78 75,-155 113,-231 46,-90 98,-182 155,-275 57,-93 123,-175 197,-250 74,-74 158,-135 250,-182 93,-47 197,-70 314,-70 150,0 276,27 380,80 103,54 189,127 259,219 69,91 125,198 168,319 43,122 77,250 104,387 27,133 51,238 75,317 23,76 49,115 78,117l2 0 62 0 315 -5c-54,-86 -92,-174 -113,-265 -21,-89 -32,-188 -30,-294 2,-134 32,-264 90,-393 58,-129 138,-245 239,-348 101,-103 218,-189 354,-257 134,-68 278,-108 434,-120 77,-6 151,-6 223,1 70,7 138,18 202,33 63,16 123,35 179,57 56,23 107,46 153,70 52,29 104,59 152,92 48,32 94,67 136,106l-282 538zm-3201 40c-44,0 -85,14 -122,45 -38,30 -73,68 -105,114 -32,46 -61,98 -87,152 -25,56 -49,109 -69,159 51,35 110,67 179,98 68,30 139,56 211,79 73,23 145,42 216,57 72,15 137,25 195,29 -19,-83 -41,-168 -65,-255 -24,-87 -53,-167 -85,-237 -34,-71 -71,-128 -115,-174 -42,-45 -94,-67 -153,-67zm-4315 1470c8,-124 15,-253 23,-386 8,-134 14,-265 19,-396 5,-131 9,-257 11,-380 1,-123 0,-235 -5,-338 -9,-215 -18,-405 -26,-567 -9,-163 -16,-308 -25,-434 -8,-126 -17,-236 -26,-331 -7,-94 -16,-181 -26,-259 -8,-80 -18,-154 -28,-223 -12,-69 -23,-140 -35,-214l702 -232c34,203 61,407 81,614 21,205 36,403 47,591 11,190 18,365 21,527 5,163 6,301 6,416 0,105 -1,217 -1,339 0,121 -2,247 -5,378 -2,130 -5,261 -9,394 -6,134 -12,265 -21,392l-703 109zm-2138 -1173l-505 -505 505 -505 504 505 -504 505z"/>
 </g>
</svg>
