<?xml version="1.0" encoding="UTF-8"?>
<!DOCTYPE svg PUBLIC "-//W3C//DTD SVG 1.0//EN" "http://www.w3.org/TR/2001/REC-SVG-20010904/DTD/svg10.dtd">
<!-- Creator: CorelDRAW 2017 -->
<svg xmlns="http://www.w3.org/2000/svg" xml:space="preserve" width="550px" height="550px" version="1.0" shape-rendering="geometricPrecision" text-rendering="geometricPrecision" image-rendering="optimizeQuality" fill-rule="evenodd" clip-rule="evenodd"
viewBox="0 0 1437 1437"
 xmlns:xlink="http://www.w3.org/1999/xlink">
 <g id="Layer_x0020_1">
  <metadata id="CorelCorpID_0Corel-Layer"/>
  <path fill="#FEFEFE" d="M0 0l1437 0 0 1437 -1437 0 0 -1437zm268 1301c-4,0 -9,0 -15,0 -5,-1 -10,-2 -16,-3 -5,-1 -10,-2 -15,-4 -5,-2 -10,-5 -14,-8 -4,-3 -7,-7 -10,-11 -2,-5 -4,-10 -4,-17 0,-3 0,-6 1,-9 1,-2 2,-5 3,-8 1,-3 2,-5 4,-8 1,-3 2,-5 4,-8l18 15c-1,1 -1,3 -2,4 -1,2 -3,4 -3,6 -1,2 -2,4 -3,6 -1,2 -1,3 -1,5 0,2 1,3 2,5 2,1 4,3 6,4 3,1 6,2 9,3 3,1 7,1 11,2 4,0 8,1 12,1 5,0 9,0 13,0 4,0 8,0 13,0 5,-1 10,-1 14,-2 5,-1 10,-2 15,-3 5,-1 10,-3 14,-5 -1,-2 -2,-4 -2,-7 -1,-2 -2,-4 -4,-7 -1,-2 -2,-5 -4,-7 -2,-3 -4,-6 -6,-10l19 -12c1,1 2,3 3,5 2,3 3,5 4,7 1,3 3,6 4,8 1,3 2,6 3,9 1,3 2,5 2,8 1,3 1,5 1,7 0,5 -2,9 -5,12 -2,3 -6,6 -10,9 -4,2 -9,4 -15,6 -5,2 -10,3 -16,4 -5,1 -11,2 -16,2 -5,1 -10,1 -14,1zm2 -83l-15 15 -15 -15 15 -15 15 15 14 -15 16 15 -15 15 -15 -15zm125 83c-6,0 -12,-1 -16,-3 -4,-1 -8,-4 -11,-7 -3,-3 -5,-6 -6,-11 -1,-4 -2,-8 -2,-13 0,-3 0,-6 0,-9 0,-4 0,-8 0,-13 0,-5 0,-10 0,-16 0,-6 0,-12 0,-18 -1,-6 -1,-11 -1,-17 -1,-5 -1,-10 -2,-14l23 -7c1,4 1,8 2,12 0,5 1,10 1,15 0,5 0,10 0,15 1,5 1,10 1,14 0,4 0,8 -1,13 0,4 0,8 0,12 0,4 0,7 0,11 0,3 1,5 2,7 0,1 1,2 1,3 1,0 2,1 3,1 1,0 2,0 3,0 1,0 2,1 4,1l2 0 0 24 -3 0zm72 -51c-1,-1 -2,-2 -4,-2 -1,-1 -2,-1 -4,-2 -2,-1 -5,-2 -8,-2 -3,-1 -6,-1 -10,0 -2,0 -4,0 -6,1 -2,1 -4,2 -5,4 -2,1 -3,3 -4,4 -1,2 -2,4 -2,6 0,2 1,4 3,6 1,2 3,4 6,5 2,1 5,2 8,3 3,0 5,1 8,0 3,0 6,0 9,-1 3,0 6,-1 9,-1 2,0 3,-1 5,-1 2,0 3,-1 5,-1l3 24c-3,1 -8,2 -13,3 -5,1 -10,2 -17,3 -6,0 -13,1 -20,1 -7,1 -15,1 -24,1l-11 0 0 -24 2 0 11 -1c-2,-3 -3,-6 -4,-9 0,-3 -1,-6 -1,-10 0,-4 1,-9 3,-13 2,-5 5,-9 8,-12 4,-4 8,-7 13,-9 4,-2 9,-4 14,-4 3,0 6,0 8,0 2,0 5,1 7,1 2,1 4,1 6,2 2,1 4,2 5,3 2,1 4,2 5,3 2,1 4,2 5,3l-10 19zm20 82c7,-2 14,-3 20,-6 6,-2 11,-4 15,-7 5,-3 9,-6 12,-9 3,-3 5,-6 6,-9 -2,0 -5,0 -7,0 -3,0 -5,0 -6,0 -5,-1 -10,-2 -14,-3 -4,-2 -8,-4 -11,-7 -3,-2 -5,-5 -7,-9 -2,-4 -2,-9 -2,-13 0,-4 0,-7 1,-10 0,-3 1,-7 2,-10 2,-3 3,-6 5,-9 2,-3 4,-5 7,-7 2,-2 5,-4 7,-5 3,-1 6,-2 10,-2 4,0 7,1 11,2 3,2 6,3 9,6 3,2 5,5 7,8 2,4 4,7 6,11 1,4 3,8 4,12 1,4 1,8 2,12l3 0 0 24 -5 0c-2,8 -5,15 -10,21 -4,6 -9,11 -15,16 -7,5 -13,8 -21,11 -8,3 -15,6 -24,7l-5 -24zm38 -81c-1,-1 -3,0 -4,1 -1,1 -3,2 -4,4 -1,1 -2,3 -3,5 -1,2 -1,4 -1,6 0,1 1,3 2,4 1,1 2,2 4,3 2,1 3,1 6,2 2,0 4,0 6,0 2,0 4,1 6,1l5 0c-1,-4 -2,-7 -3,-10 -1,-3 -2,-5 -4,-8 -1,-2 -3,-4 -4,-5 -2,-2 -4,-3 -6,-3zm41 26c2,0 4,-1 6,-1 2,0 3,-1 5,-1 1,-1 2,-2 3,-2 0,-1 1,-1 1,-2l0 0c1,-1 2,-2 2,-4 1,-1 2,-3 3,-5 1,-3 1,-6 3,-9 1,-4 2,-9 3,-14l20 6c0,2 -1,4 -1,6 -1,2 -1,4 -1,5 0,2 0,4 0,5 0,2 0,4 1,6 2,-4 5,-7 7,-11 2,-3 5,-7 8,-10 2,-3 5,-6 9,-9 3,-3 6,-5 10,-7 4,-2 8,-4 13,-5 4,-1 9,-2 15,-2 6,0 12,1 17,4 4,2 9,5 12,8 3,4 5,7 7,12 2,4 2,9 2,13 0,6 -2,11 -4,15 -2,4 -5,8 -9,11 -3,3 -7,6 -12,8 -4,2 -9,4 -14,5 -5,1 -10,2 -16,3 -5,0 -10,1 -15,1 -5,0 -9,-1 -13,-1 -4,0 -8,-1 -12,-2 -3,-1 -6,-2 -9,-3 -4,-2 -7,-4 -10,-7 -3,4 -8,7 -13,8 -5,2 -11,3 -18,3l-2 0 0 -24 2 0zm107 -29c-4,0 -7,1 -10,1 -3,1 -6,3 -9,4 -3,2 -6,3 -8,5 -3,2 -5,4 -7,6 -2,3 -4,5 -6,7 -2,2 -3,4 -4,6 2,0 4,0 7,0 2,0 5,0 7,0 3,0 7,0 10,0 4,0 7,-1 10,-1 4,-1 7,-1 10,-2 3,-1 6,-2 8,-4 3,-1 5,-3 7,-5 2,-1 3,-4 4,-6 -1,-4 -3,-7 -6,-8 -3,-2 -8,-3 -13,-3zm0 -34l-17 -18 17 -17 17 17 -17 18zm43 118c8,-2 14,-3 20,-6 6,-2 12,-4 16,-7 5,-3 8,-6 11,-9 3,-3 5,-6 7,-9 -3,0 -5,0 -7,0 -3,0 -5,0 -6,0 -6,-1 -10,-2 -14,-3 -5,-2 -8,-4 -11,-7 -3,-2 -6,-5 -7,-9 -2,-4 -3,-9 -3,-13 0,-4 0,-7 1,-10 1,-3 2,-7 3,-10 1,-3 3,-6 5,-9 2,-3 4,-5 6,-7 3,-2 5,-4 8,-5 3,-1 6,-2 9,-2 4,0 8,1 11,2 4,2 7,3 9,6 3,2 6,5 8,8 2,4 4,7 5,11 2,4 3,8 4,12 1,4 2,8 2,12l4 0 0 24 -5 0c-2,8 -5,15 -10,21 -4,6 -10,11 -16,16 -6,5 -13,8 -20,11 -8,3 -16,6 -24,7l-6 -24zm38 -81c-1,-1 -2,0 -3,1 -2,1 -3,2 -4,4 -1,1 -2,3 -3,5 -1,2 -1,4 -1,6 0,1 0,3 1,4 1,1 3,2 4,3 2,1 4,1 6,2 2,0 5,0 7,0 2,0 4,1 6,1l4 0c0,-4 -1,-7 -2,-10 -1,-3 -3,-5 -4,-8 -1,-2 -3,-4 -5,-5 -1,-2 -3,-3 -6,-3zm107 50c-3,0 -6,0 -10,-1 -3,-1 -6,-2 -9,-3 -4,-1 -7,-2 -10,-3 -2,-2 -5,-3 -7,-5 -2,2 -4,4 -6,6 -2,1 -4,3 -6,4 -2,0 -5,1 -7,2 -3,0 -6,0 -8,0l-4 0 0 -24 4 0c3,0 6,-1 8,-3 2,-1 4,-3 6,-5 2,-2 3,-5 5,-7 1,-3 2,-6 3,-8 2,-3 4,-6 6,-10 2,-3 4,-6 6,-8 3,-3 6,-5 9,-6 3,-2 7,-3 11,-3 5,0 10,2 14,4 4,3 7,6 9,10 3,4 5,9 6,14 1,5 2,10 2,15 0,5 -1,9 -2,13 -1,3 -3,7 -5,9 -2,3 -5,5 -7,7 -3,1 -5,2 -8,2zm-10 -50c-1,0 -3,1 -4,2 -1,1 -3,2 -4,4 -1,2 -2,4 -3,6 -1,2 -2,4 -2,5 1,1 3,2 6,3 2,1 4,2 6,3 3,0 5,1 7,2 3,0 5,0 7,1 0,-4 0,-7 0,-10 -1,-3 -2,-6 -3,-8 -1,-2 -3,-4 -4,-6 -2,-1 -4,-2 -6,-2zm152 50c-1,0 -2,0 -4,0 -2,0 -4,-1 -7,-2 -1,7 -3,13 -6,18 -3,6 -7,12 -12,17 -4,5 -10,9 -15,14 -6,4 -13,8 -19,11l-15 -20c4,-1 8,-4 11,-6 4,-2 8,-4 11,-7 4,-2 7,-5 10,-7 3,-3 5,-6 7,-9 2,-3 4,-5 5,-8 2,-3 2,-6 2,-9 0,-2 0,-5 -1,-8 -1,-3 -2,-7 -3,-10 -1,-4 -2,-7 -4,-11 -1,-4 -3,-7 -4,-10l22 -10c3,7 5,12 6,16 2,4 4,7 6,10 2,2 3,4 5,5 2,1 3,2 5,2l2 0 0 24 -2 0zm-1 -24l18 0c3,0 5,-1 8,-1 2,0 5,-1 7,-1 3,-1 5,-2 6,-3 2,-2 3,-4 3,-6 0,-1 -1,-3 -2,-6 0,-2 -1,-5 -3,-8 -1,-3 -2,-6 -4,-9 -1,-4 -3,-7 -4,-10l22 -11c1,3 3,7 4,10 2,4 3,8 4,12 1,3 2,7 3,11 1,4 1,7 1,11 0,6 -1,12 -4,16 -2,5 -5,8 -9,11 -4,3 -9,5 -14,6 -6,1 -12,2 -18,2l-18 0 0 -24zm30 47l-15 14 -15 -15 15 -15 15 15 15 -14 15 15 -15 15 -15 -15zm84 -23c-6,0 -12,-1 -16,-3 -5,-1 -9,-4 -11,-7 -3,-3 -5,-6 -7,-11 -1,-4 -1,-8 -1,-13 0,-3 0,-6 0,-9 0,-4 0,-8 0,-13 0,-5 0,-10 0,-16 0,-6 0,-12 -1,-18 0,-6 0,-11 -1,-17 0,-5 -1,-10 -1,-14l23 -7c0,4 1,8 1,12 1,5 1,10 1,15 1,5 1,10 1,15 0,5 0,10 0,14 0,4 0,8 0,13 0,4 0,8 0,12 0,4 0,7 0,11 0,3 0,5 1,7 1,1 1,2 2,3 1,0 2,1 2,1 1,0 2,0 4,0 1,0 2,1 3,1l2 0 0 24 -2 0zm1 -24c4,0 7,-2 10,-4 2,-2 5,-4 6,-8 2,-3 4,-7 5,-12 2,-4 3,-8 4,-13l21 4c-1,2 -1,4 -2,6 0,2 -1,5 -1,8 -1,2 -1,5 -2,7 0,3 0,5 0,7 0,1 1,3 2,4 0,1 2,1 3,1 2,0 4,-1 6,-2 1,-1 3,-3 4,-5 2,-2 3,-4 4,-7 1,-2 2,-5 3,-8 0,-2 1,-5 1,-8 1,-2 1,-5 2,-7l19 4c0,1 0,3 0,5 0,3 -1,5 -1,7 0,3 0,5 0,8 0,2 0,5 0,7 1,2 2,3 3,5 2,1 3,1 6,1 1,0 3,0 4,0 2,-1 3,-1 4,-2 2,-1 2,-2 3,-4 1,-1 1,-2 1,-4 0,-2 0,-5 -1,-9 -1,-3 -2,-6 -3,-9 -1,-4 -3,-7 -4,-9 -1,-3 -3,-6 -4,-8l20 -10 1 3c1,2 2,4 3,6 1,3 2,5 3,8 1,3 2,6 3,10 1,3 2,6 2,9 1,4 1,7 1,10 0,5 -1,10 -2,14 -2,4 -4,8 -7,11 -2,3 -6,5 -10,7 -5,1 -10,2 -16,2 -2,0 -5,0 -7,-1 -2,0 -5,-1 -6,-2 -2,-1 -4,-2 -5,-3 -2,-2 -3,-3 -4,-5 -1,2 -3,3 -4,5 -1,1 -3,2 -5,3 -2,1 -4,2 -6,2 -2,1 -5,1 -8,1 -2,0 -5,0 -7,-1 -2,0 -4,-1 -5,-2 -2,-1 -4,-2 -5,-3 -1,-1 -3,-3 -4,-5 -1,2 -2,3 -4,4 -1,1 -3,2 -4,3 -2,1 -5,2 -7,2 -3,1 -6,1 -9,1l-3 0 0 -24 2 0zm-398 -1072c103,0 196,42 263,109 68,68 110,161 110,264 0,103 -42,197 -110,264 -67,68 -160,109 -263,109 -104,0 -197,-41 -264,-109 -68,-67 -110,-161 -110,-264 0,-103 42,-196 110,-264 67,-67 160,-109 264,-109zm241 132c-62,-62 -147,-100 -241,-100 -95,0 -180,38 -242,100 -61,62 -100,147 -100,241 0,94 39,180 100,241 62,62 147,100 242,100 94,0 179,-38 241,-100 62,-61 100,-147 100,-241 0,-94 -38,-179 -100,-241zm-431 160l109 0 0 -108c0,-22 9,-43 23,-57 15,-15 35,-24 58,-24 22,0 42,9 57,24 14,14 24,35 24,57l0 108 108 0c22,0 42,9 57,24 15,15 24,35 24,57 0,23 -9,43 -24,57 -15,15 -35,24 -57,24l-108 0 0 109c0,22 -10,42 -24,57 -15,14 -35,24 -57,24 -23,0 -43,-10 -58,-24 -14,-15 -23,-35 -23,-57l0 -109 -109 0c-22,0 -42,-9 -57,-24 -15,-14 -24,-34 -24,-57 0,-22 9,-42 24,-57 15,-15 35,-24 57,-24zm125 32l-125 0c-13,0 -25,6 -34,15 -9,9 -15,21 -15,34 0,14 6,26 15,35 9,9 21,14 34,14l141 0 0 141c0,13 5,25 14,34 9,9 21,14 35,14 13,0 25,-5 34,-14 9,-9 14,-21 14,-34l0 -141 141 0c13,0 26,-5 34,-14 9,-9 15,-21 15,-35 0,-13 -6,-25 -15,-34 -8,-9 -21,-15 -34,-15l-141 0 0 -140c0,-14 -5,-26 -14,-35 -9,-8 -21,-14 -34,-14 -14,0 -26,6 -35,14 -9,9 -14,21 -14,35l0 140 -16 0z"/>
 </g>
</svg>
